<?xml version="1.0" encoding="utf-8"?><svg xmlns="http://www.w3.org/2000/svg" xmlns:xlink="http://www.w3.org/1999/xlink"><symbol viewBox="0 0 1188.95 999.27" id="credit_icon" xmlns="http://www.w3.org/2000/svg"><g data-name="layer_1"><path d="M0 595.39c3.53-5.56 8.68-8.91 14.61-11.64 40-18.35 79.58-37.45 119.82-55.16 32.14-14.15 64.84-27.07 97.6-39.74a174.74 174.74 0 0153.1-11c17.78-1 35.66-2.05 53.43-1.37 40.77 1.55 79.73 10.61 115.32 31.49 19.53 11.46 36.5 26 51.56 42.87 4.82 5.39 9.82 10.65 14.42 16.22 8.33 10.11 20.26 13.78 31.86 17.76 14.42 5 29.08 9.21 43.71 13.51a8.47 8.47 0 006.13-.88c28.51-17.74 56.85-35.74 85.36-53.49 23.76-14.79 47.54-29.55 71.57-43.9 19.53-11.65 40.78-18.61 63.36-21.66 15.6-2.1 31.06-2.05 46.4 1.65a60.62 60.62 0 0124.89 12.22c5.74 4.78 10.4 10.37 12.39 17.82.63 2.38 1.6 4.67 2.42 7.05 8.66-3.3 17.2-6.88 26-9.8 15.06-5 30.5-8.42 46.49-7.73 18.55.81 35.51 6.16 49.14 19.43 3.52 3.44 6.39 7.58 9.35 11.55a16.19 16.19 0 013 11.63c-.21 2.18 0 4.39 0 7.11 5.95-2.43 11.38-4.79 16.91-6.86 18.13-6.79 36.54-12.55 56.23-11.42 34.84 2 65.55 23.36 72.59 60.07 3.53 18.39-.23 35.61-9.35 51.79-12.87 22.86-31.9 39.82-53.24 54.23q-92.67 62.58-185.76 124.56-73.2 48.63-147.07 96.26c-29.76 19.21-59.93 37.81-90.22 56.19-19.57 11.89-40.71 20.17-63.52 23.56-18.55 2.75-37 1.78-55.41-1.65-30.6-5.69-58.33-18.77-85.65-32.94q-71.72-37.2-143.44-74.39c-21-10.85-41.89-21.84-63.16-32.09-7.16-3.45-15.2-5.52-23.07-6.95-10-1.82-19.21 2-27.53 7.26-25.31 16-50.6 32.12-75.61 48.63-14.11 9.31-31 3.8-36.84-9.66a23.79 23.79 0 018.66-29.35q23.64-15.69 47.54-31c11.74-7.5 23.47-15 35.59-21.87 27.39-15.43 55.84-16.26 84.25-3.51 19.93 8.95 39.28 19.21 58.74 29.2 58.83 30.19 117.53 60.66 176.42 90.74 18 9.17 36.74 16.3 56.73 20 23.89 4.43 46.76 1.51 68.15-9.75 15.27-8 30.13-17 44.66-26.29Q799 856 889.08 797.38c55.64-36.46 110.89-73.53 166.24-110.45 16.88-11.26 33.75-22.57 50.16-34.49 12.65-9.18 24.13-19.81 31.82-33.78 2.94-5.34 5.52-11 4.54-17.35-1.83-12-14-21.82-26.74-22.49-17.66-.93-33.89 4.28-49.89 10.75-22.09 8.94-41.4 22.63-61 35.81q-35.64 24-71.21 48c-36.92 24.91-73.7 50-110.86 74.59-8 5.32-14.94 11.93-22.87 17.24-14.64 9.81-31 15.36-48.34 17.42a388.17 388.17 0 01-43.25 2.68q-68.58.45-137.16 0a397.4 397.4 0 01-77.88-8.49c-23.44-4.83-46.77-10.27-70.06-15.77a23.93 23.93 0 01-18.42-23.4 23.68 23.68 0 0118.7-23.08 28.37 28.37 0 0112.86.36c27 7.17 54.32 13.11 81.91 17.57a390.75 390.75 0 0061.37 5.3c44.34.09 88.69.17 133 0 17.32-.08 34.68-1.06 51.08-7.4a70.36 70.36 0 0015.48-8.73 13.24 13.24 0 005.08-7.93 84.34 84.34 0 00.65-19.63c-.73-7.76-6.66-12.16-12.86-16-8.75-5.38-18.46-8-28.5-9.16-9.63-1.15-19.33-2.08-29-2.33-24.73-.63-49.13-3.89-73.35-8.67-14.72-2.91-29.62-5.31-44-9.49-25.45-7.41-51.37-13.37-75.89-23.82-20-8.52-36.07-21.9-50.34-37.91-11.7-13.13-23.31-26.38-37.95-36.49-17.43-12-36.94-18.63-57.58-22.3-25.94-4.62-52.11-5-78.31-3.68-25.75 1.31-50.14 8.14-73.73 18.47C190.3 557 157.42 570.38 125 584.82c-28.6 12.72-56.78 26.37-85.19 39.52-5 2.33-10.12 5.15-15.47 6.06-10.5 1.79-18.56-3-24.32-11.77zm830.7 89.18a24 24 0 002.14-1.13q44.25-29.81 88.51-59.63 37.3-25.11 74.61-50.23c1-.7 2.47-1.86 2.5-2.84.18-5 .51-10-.39-14.82-.43-2.34-3.08-4.76-5.34-6.15a15.82 15.82 0 00-8.14-2.28c-8.43.16-17 .07-25.24 1.56-20.71 3.75-40 11-57.25 23.7-19.63 14.44-40 27.9-60 41.76-13.06 9-26.14 18-39.52 27.23a77.87 77.87 0 0128.12 42.83zm-164.08-72v1.21c11 1.37 21.9 3.12 32.9 4 14.29 1.14 28.65 1.33 42.94 2.5 4.32.36 7.61-.36 10.91-3s6.74-4.67 10.12-7q49.63-33.89 99.29-67.72c2.74-1.86 3.18-4 2.82-6.94-.72-5.94-5-7.93-9.84-9.25-9.23-2.52-18.51-1.63-27.76-.07-16.54 2.78-32.69 7.15-47.06 15.86-38.27 23.26-76.23 46.95-114.32 70.44z"/><path d="M618.49 141.9c.45-15.66 2.74-31.24 8.19-46.22 12.18-33.48 33.62-59.25 64.51-77.06A137 137 0 01761 0c37.64.09 70.28 13.08 97.86 38.7 19.83 18.41 33.55 40.68 40.4 66.81 10.35 39.46 5.17 77.06-16.15 111.93-18.51 30.27-45 50.88-78.86 61.68a182 182 0 01-18.06 4.37c-2.54.53-3.16 1.46-2.71 4 2.91 16.63 2.33 33.28-.54 49.84a164.6 164.6 0 01-24.43 62.28 167 167 0 01-62.06 57 165 165 0 01-144 5.56c-37.33-16.49-65.14-43.13-83.35-79.62a160.48 160.48 0 01-16.45-60.39q-4.62-62 32.26-111.84c25.4-34.33 59.5-55.7 101.29-64.36 10.46-2.17 21.21-2.72 32.29-4.06zm-118.6 167.41a118.84 118.84 0 10119-118.83c-65.89-.09-119.28 53.13-119 118.83zM761.17 47.14c-7 1-14.15 1.38-21 3-33.15 8-55.9 28.21-68 60-4.56 11.92-6.78 24.4-5.29 37.32.24 2 1 2.87 3 3.57 6.42 2.32 12.89 4.6 19 7.54 32.37 15.56 57.37 39.1 75.12 70.43 1.55 2.76 2.79 6.73 5.17 7.72 2.68 1.1 6.52-.42 9.81-1 51.26-9.21 85.36-57.31 76.18-109.8-8.02-45.69-47.83-78.5-93.99-78.78z"/><path d="M639.84 374.08h-42.75V288h-33.23c1-1.27 1.56-2 2.21-2.68q19.32-19.37 38.72-38.66a6.28 6.28 0 013.68-2c10.36-.16 20.72-.09 31.37-.09zM779.38 89.22v107H743.6v-71.15h-28.25c1.44-1.55 2.22-2.46 3.07-3.31 10.06-10.07 20.07-20.18 30.26-30.12a8.93 8.93 0 015.42-2.32c8.32-.24 16.65-.1 25.28-.1z"/></g></symbol><symbol viewBox="0 0 138.59 138.75" id="factoring_icon" xmlns="http://www.w3.org/2000/svg"><path d="M82.66 86.44v30.61c0 3.93-2.3 6.37-5.52 6s-4.55-2.35-4.57-5.39c0-5.11-.06-10.23 0-15.34 0-2.32-.89-2.91-3.22-1.83v16c0 4.55-1.65 6.6-5.22 6.63s-5.42-2.18-5.43-6.52V85.72c-.73.79-1.06 1.47-1.53 1.6-1.87.53-4.27 1.77-5.53 1.07s-2.38-3.74-1.89-5.19a123 123 0 016.7-16.2 12 12 0 0110.88-6.84c3.69-.07 7.74-.28 11 1.1 2.9 1.24 5.52 4.2 7.18 7 2.37 4 3.69 8.69 5.59 13 1.22 2.76 1.82 5.41-1.23 7.2-2.87 1.67-5 .27-7.21-2.02zM80.28 76l1.29-.32a19.8 19.8 0 011.65 2.55c.78 1.7 1.25 3.56 2.18 5.16a15.39 15.39 0 002.81 2.84c.1-1.3.62-2.76.22-3.88-1.54-4.21-3.38-8.31-5.1-12.45-2-5-5.89-7.11-11.13-7.32-5.86-.23-11.09.88-13.86 6.7-2.13 4.5-4 9.15-5.73 13.81-.33.86.31 2.1.51 3.16.8-.61 1.92-1 2.34-1.86 1.08-2.1 1.77-4.39 2.79-6.52.38-.78 1.27-1.32 1.92-2a18.06 18.06 0 011.28 2.71 7.89 7.89 0 010 2.23v35.56c0 1.77-.16 3.77 2.39 3.83 2.7.08 2.77-1.92 2.76-3.9 0-5.12.24-10.25-.07-15.34-.22-3.76 1.71-3.87 4.55-3.94 3-.07 4.27.72 4.12 4-.24 5.36-.19 10.73 0 16.09 0 1.07 1.51 2.08 2.32 3.11a14.61 14.61 0 002.17-2.93 8.37 8.37 0 00.09-3V80.23c.13-1.44.37-2.86.5-4.23zm-44.63 1.05c-.08 1.63-.2 3.26-.22 4.89v8.61c0 2.87-1.43 4.77-4.5 4.79s-4.54-1.72-4.55-4.72V68.05c-2.43-.29-5.32.17-6.18-.94-1-1.33-.68-4.08-.23-6.06.55-2.39 2-4.56 2.78-6.91 1.75-5.1 4.87-8.65 10.06-9.58-1.45-2.13-3.77-4.12-4.07-6.38a10.68 10.68 0 012.21-7.38c2.74-3.38 8.38-2.77 11.25.59 3.33 3.89 2.13 8.91-3.49 13 6.56.89 9.43 5.21 11.23 10.67.74 2.24 2.13 4.3 2.6 6.58.38 1.84.51 4.49-.53 5.65s-3.59.49-6.06.69V90.4c0 3-1.23 4.92-4.31 4.91s-4.25-2.15-4.27-5v-10.1a24 24 0 00-.51-3.21zm-8.36-20.13l1.37.3a38 38 0 01.48 4.21c0 9.11-.05 18.22.11 27.32 0 1.26 1.16 2.51 1.79 3.76.52-1.22 1.45-2.42 1.51-3.66.18-4 .07-8 0-12-.06-3.29 2.35-2.48 4.22-2.63s3.4.16 3.31 2.73c-.14 4-.18 8 0 12 .07 1.19 1.1 2.33 1.69 3.49.47-1.14 1.32-2.27 1.33-3.41.12-9.36 0-18.71.11-28.07a20.84 20.84 0 01.79-3.85l1.17-.11q2.13 4.3 4.28 8.61l1.71-.88c-2.42-5.05-4.68-10.18-7.37-15.07-.64-1.16-2.66-1.91-4.16-2.19-7.63-1.42-11.35.7-14.36 7.88-1 2.41-2.05 4.81-3 7.25a13.1 13.1 0 00-.46 2.6l1 .38zm14-20.51a5.38 5.38 0 00-5.43-5A5.34 5.34 0 0031 36.55a5.16 5.16 0 0010.31-.14zM103 43.64c-3.78-3-5.2-6.25-3.64-10a7.46 7.46 0 017.63-5 7.37 7.37 0 017.21 5.49c1.27 3.89-.09 6.75-4.9 10.17 6.33.86 9.29 5 11.09 10.41.75 2.24 2.1 4.31 2.6 6.59.42 1.87.75 4.59-.26 5.7s-3.71.72-6.24 1.07v22.78c0 2.84-1.57 4.52-4.42 4.41-2.62-.1-4-1.76-4.1-4.4V76.99l-1.35-.1a7.62 7.62 0 00-.68 2.09c-.06 3.37 0 6.73 0 10.1 0 4.45-1.29 6.25-4.57 6.21-3.09 0-4.46-1.85-4.47-6V66.86c-1.09.52-1.92 1.26-2.72 1.22-1.26-.07-3-.27-3.63-1.11a4.93 4.93 0 01-.73-4c1.49-4.23 2.86-8.65 5.29-12.33 1.89-2.85 5.31-4.76 7.89-7zm17 22l1.52-.71c-1.55-3.84-3.13-7.68-4.65-11.53-1.67-4.2-4.64-6.16-9.24-6.1-6.9.09-8.87 1.26-11.59 7.73-.87 2.06-1.78 4.12-2.58 6.21-.49 1.26-.8 2.59-1.2 3.9l1.39.55c.84-1.9 1.55-3.87 2.56-5.68a15.57 15.57 0 012.48-2.74 12.23 12.23 0 011 3.29c.09 7.85 0 15.71 0 23.57a58.42 58.42 0 00.1 6.35c.08.72 1.06 1.34 1.63 2 .61-.66 1.55-1.23 1.74-2a15.39 15.39 0 00.06-3.72V74.55c1.32-.14 2.06-.18 2.79-.29 3.45-.55 5 .58 4.67 4.37a71.75 71.75 0 000 10.47c.06 1.14.92 2.25 1.42 3.38.58-1.18 1.64-2.34 1.66-3.52.14-9.35.06-18.71.1-28.06a28.66 28.66 0 01.45-3.68l1.29-.3zm-8.16-29a5.19 5.19 0 00-5.09-5.29 5.4 5.4 0 00-5.13 4.93 5.26 5.26 0 004.77 5.23 5.07 5.07 0 005.44-4.84zM55.2 132.79l-1.57-2.63c.83-1.87 3.81-.11 7.23 4.31-2.19 1.93-3.57 5.14-7.77 4.07l1.77-2.8c-2.91-.59-5.74-1-8.46-1.75-13.63-3.82-24.67-11.58-33.5-22.53-.69-.85-.68-2.28-1-3.44 1.05.59 2.38 1 3.12 1.81C25.16 121.61 37.36 129.9 53 132.54c.55.1 1.16.13 2.2.25zM87 5.94l1.51 3.14c-4.36.69-4.95-3.06-7-5.37 2.55-1.85 4.3-5 8.36-3.18l-2 2.15c4.64 1.93 9.34 3.53 13.71 5.77 10.57 5.43 18.65 13.64 25 23.61a5.34 5.34 0 01.42 4C116.72 22 105 10.37 87 5.94zM6.28 89.89L8 87c3 3.43 0 5.82-.58 8.89C4.19 94.55.72 94.63 0 90.37l3.28.63c-.79-3.26-1.7-6.22-2.21-9.25C-1.17 68.35 1 55.5 6.72 43.23c.56-1.21 2-2 3-3a15.16 15.16 0 01-.56 3.93c-6 14-8.24 28.39-3.85 43.34.23.7.56 1.35.97 2.39zm126.09-39.7l-1.82 3.17c-3-3.42 0-5.86.55-9.08 3 1.49 6.57 1.31 7.47 5.59l-3.57-.76c3.13 8.8 4.53 17.72 3 26.62-1.35 7.64-4 15.06-6.24 22.54-.23.79-1.48 1.28-2.26 1.91-.06-1.06-.51-2.29-.13-3.15 6.53-15.03 8.63-30.29 3-46.84zM23 23.42l3.26.39c-2.22 3.06-2.85 3.27-8.87 2.91l.68-8.28h1.25l1.26 3.05C32.73 9.49 47.36 3.82 64 3.14a40.72 40.72 0 014.79.33l.1 1.5a29.41 29.41 0 01-3.79.72c-14.51.94-27.9 4.9-39.1 14.68-.66.57-1.31 1.16-1.93 1.76-.28.26-.48.57-1.07 1.29zm94.79 94.65l-3.52-.38c.52-.74.84-1.69 1.28-1.75 2.2-.3 4.61-1 6.6-.34 1.72.53 1.14 5.13-.87 7.44l-1.35-3.25a49.61 49.61 0 01-23.47 14.88c-6.9 2-14.14 2.77-21.25 3.88-1 .17-2.26-.84-3.39-1.3 1.09-.49 2.15-1.34 3.26-1.39 15.58-.76 29.61-5.38 41.23-16.17.45-.41.82-.89 1.48-1.62zM71.63 58.86a9.16 9.16 0 01-9.32-9.48 9.49 9.49 0 1119 .32 9.17 9.17 0 01-9.68 9.16zm0-16.12a6.67 6.67 0 00-6.54 7.11A6.86 6.86 0 0072 56.3a7.17 7.17 0 006.63-6.83 6.84 6.84 0 00-7-6.73z" data-name="layer_1"/></symbol><symbol viewBox="0 0 24 24" id="file_download" xmlns="http://www.w3.org/2000/svg"><rect/><path d="M18 15v3H6v-3H4v3c0 1.1.9 2 2 2h12c1.1 0 2-.9 2-2v-3h-2zm-1-4l-1.41-1.41L13 12.17V4h-2v8.17L8.41 9.59 7 11l5 5 5-5z"/></symbol><symbol viewBox="0 0 640 512" id="handshake-regular" xmlns="http://www.w3.org/2000/svg"><path d="M519.2 127.9l-47.6-47.6A56.252 56.252 0 00432 64H205.2c-14.8 0-29.1 5.9-39.6 16.3L118 127.9H0v255.7h64c17.6 0 31.8-14.2 31.9-31.7h9.1l84.6 76.4c30.9 25.1 73.8 25.7 105.6 3.8 12.5 10.8 26 15.9 41.1 15.9 18.2 0 35.3-7.4 48.8-24 22.1 8.7 48.2 2.6 64-16.8l26.2-32.3c5.6-6.9 9.1-14.8 10.9-23h57.9c.1 17.5 14.4 31.7 31.9 31.7h64V127.9H519.2zM48 351.6c-8.8 0-16-7.2-16-16s7.2-16 16-16 16 7.2 16 16c0 8.9-7.2 16-16 16zm390-6.9l-26.1 32.2c-2.8 3.4-7.8 4-11.3 1.2l-23.9-19.4-30 36.5c-6 7.3-15 4.8-18 2.4l-36.8-31.5-15.6 19.2c-13.9 17.1-39.2 19.7-55.3 6.6l-97.3-88H96V175.8h41.9l61.7-61.6c2-.8 3.7-1.5 5.7-2.3H262l-38.7 35.5c-29.4 26.9-31.1 72.3-4.4 101.3 14.8 16.2 61.2 41.2 101.5 4.4l8.2-7.5 108.2 87.8c3.4 2.8 3.9 7.9 1.2 11.3zm106-40.8h-69.2c-2.3-2.8-4.9-5.4-7.7-7.7l-102.7-83.4 12.5-11.4c6.5-6 7-16.1 1-22.6L367 167.1c-6-6.5-16.1-6.9-22.6-1l-55.2 50.6c-9.5 8.7-25.7 9.4-34.6 0-9.3-9.9-8.5-25.1 1.2-33.9l65.6-60.1c7.4-6.8 17-10.5 27-10.5l83.7-.2c2.1 0 4.1.8 5.5 2.3l61.7 61.6H544v128zm48 47.7c-8.8 0-16-7.2-16-16s7.2-16 16-16 16 7.2 16 16c0 8.9-7.2 16-16 16z"/></symbol><symbol viewBox="0 0 151.27 152.18" id="lease_icon" xmlns="http://www.w3.org/2000/svg"><g data-name="layer_1"><path d="M89 68.32v-4c-2.5-2.82-7.85 2.41-8.53-3.67-.65-5.71-.25-6.22 3.42-7.41 0-2.62.05-5.35 0-8.07-.06-2.1.6-3.66 2.93-3.17 6.66 1.41 10.32-2.16 13.4-7.34a72.53 72.53 0 016.43-8.72 5.77 5.77 0 018.88-.65c6.93 6.46 13.81 13 20.53 19.68.87.87 1.35 3.53.73 4.24-2 2.31-1.07 4.35-.2 6.49s.39 3.28-1.82 3.92c-2.39.69-4.71 1.65-7.11 2.32a7.09 7.09 0 01-9.11-7.13c0-.75 1.22-1.75 2.09-2.1 3-1.19 6-2.14 9.94-3.48L112 34.67c-2.55 5.75-7.63 10-6.65 17a40.36 40.36 0 010 5.61c0 5.81 0 5.81-5.63 6.55v4.49h13.72c5.25 0 6.25 1.08 6.25 6.45s-1.06 6.59-6.11 6.6h-38.2c-4.84 0-6-1.35-6-6.78 0-5 1.21-6.24 6.12-6.27 4.41-.02 8.76 0 13.5 0zm13.28-7.77c0-4.07.29-8.13-.16-12.11a5.09 5.09 0 00-3.47-3.36A100.72 100.72 0 0087 44.92v15.63zm-7.63 18c6.47 0 12.94-.1 19.4 0 3 .07 3.1-1.62 3.13-3.81S116.8 71 113.92 71c-12.82.1-25.64.14-38.45 0-3.28 0-3.13 1.82-3.23 4.07-.11 2.5.62 3.59 3.34 3.52 6.34-.16 12.69-.04 19.03-.05zM106.26 31l-7.84 10.65 5.07 2.56 5.45-9.91zm15.41 24.26c1.83 5.39 3.56 5.53 12.15 1.27l-1.73-4.84zm8.66-10.45L117 30.57l-2 3c5 3.85 9.79 7.56 14.61 11.24.23.13.67-.01.72-.01zM96.6 68.12v-4.35h-4.43v4.35zm18.25-38.76c-1.62-1.11-2.62-2.32-3.4-2.19s-1.52 1.51-2.27 2.35c.75.66 1.49 1.84 2.24 1.85s1.81-.99 3.43-2.01zm-17.72 73.99c2.7 0 4.92-.06 7.13 0 7.52.24 12.1 8.09 8.19 14.51-.91 1.5-3.31 2.28-5.19 3-1.21.43-2.7.08-4 .08-3 7.48-5.43 9.57-10.48 9.26-4.5-.28-7.21-3-8.68-9H66.3c-3.15 7.44-5.59 9.49-10.81 9-4.29-.38-6.9-3.12-8.31-8.74-.2-.14-.39-.37-.61-.39-5.82-.51-8.1-2.09-8.54-5.94-.52-4.49 2.77-9.52 7.36-11a11.89 11.89 0 014.4-.69c4.14.28 6.55-1.72 8-5.36.6-1.5 1.45-2.89 2.1-4.38a5.91 5.91 0 015.86-3.82h26.21c3.57 0 5.06 1.7 5.15 5.41.07 2.46.02 4.94.02 8.06zM105 119c2.15-1.12 4.35-1.52 5.09-2.79a6.71 6.71 0 00-5.92-10c-10.15 0-10.17.65-9.87-10 .08-2.9-1.09-3.59-3.75-3.54-7.1.13-14.23.3-21.31-.09-4.43-.24-6.94 1.21-8.36 5.38-1.92 5.68-5.71 8.69-12.12 8.36-4-.2-7.6 3.06-7.7 6.7a6.1 6.1 0 002.34 4.71 3.88 3.88 0 005.46-1.36c4.09-5.89 11-5.76 15.36-.16a5.36 5.36 0 003.55 1.79c4.61.21 9.23 0 13.84.11a4.75 4.75 0 004.57-2.28c3.67-5.2 10.7-5.06 14.73-.12 1.02 1.29 2.56 2.1 4.09 3.29zm-5.19 2.2a6.53 6.53 0 00-6.36-6.44 6.34 6.34 0 106.36 6.44zm-43.13 6.22a6.34 6.34 0 006.09-6.62 6.41 6.41 0 00-6.31-6.06 6.52 6.52 0 00-6.34 6.46 6.44 6.44 0 006.6 6.26zM72.5 50.41l-7.5.76c-.08 1.21-.21 2.52-.22 3.82 0 8-.1 16 0 23.94.05 2.63-.83 3.46-3.43 3.44q-18.15-.15-36.31 0c-2.5 0-3.21-1-3.18-3.32.14-7.73.14-15.46.14-23.19v-4.65l-7.39-.65c1.07-1.38 1.56-2.44 2.39-3 8.09-5.62 16.19-11.22 24.41-16.64a4.34 4.34 0 013.88 0c8.3 5.45 16.49 11.13 24.71 16.8a21.85 21.85 0 012.5 2.69zm-47.64.64v28.29H43.7c0-4.36-.06-8.34 0-12.32.07-3.59-1.1-8.68.76-10.37 2.13-1.92 7-.67 10.68-1.07 3.47-.38 4.23 1.13 4.1 4.28-.22 5.6-.13 11.21 0 16.81 0 1 .87 2 1.33 3 .46-.95 1.31-1.89 1.33-2.85.11-6.85.06-13.7.06-20.55v-5.22zm-3.49-3.15h44l-22-15.07zm34.89 31.58V58.64h-9.65v20.84zM78.19 0l4.24 2.12c-1.44.43-2.9 1.24-4.33 1.2s-2.63-1-3.94-1.51zM4.12 92.18a17.31 17.31 0 011.31 3.55 31.17 31.17 0 01.07 4.64 22.62 22.62 0 01-2.69-4.15c-.43-1.15-.08-2.59-.08-3.9zM94 4.58c-2.63 1.23-5.16-.16-7.73-.78a14.83 14.83 0 01.64-2.16c2.47.39 4.92.93 7.38 1.44-.08.5-.18 1-.29 1.5zM7.26 102.89a16.28 16.28 0 011.68 2.67c.64 1.66 1.1 3.39 1.64 5.09-.54.14-1.5.5-1.55.39-1.13-2.15-2.19-4.34-3.12-6.58-.1-.22.68-.82 1.35-1.57zm10.56 17.51c-1.56.2-2.75.65-3 .34a35.36 35.36 0 01-3.52-5.22c-.12-.22 1-1.13 1.52-1.72 1.46 1.95 2.94 3.89 5 6.6zM150 62.79c.32 2.34.71 4.68.92 7 0 .43-.53 1.07-1 1.33-.26.15-1.19-.19-1.24-.43-.51-2.59-1.78-5.22-.37-7.79zm-77 88.85a6.26 6.26 0 01-2.21 0 9.72 9.72 0 01-2.1-1.58 16.09 16.09 0 012.37-1.14 3.24 3.24 0 011.85.06c1.33.44 2.62 1 3.93 1.56l-3.63 1.69zm60.25-123.26c-.75.11-1.82.58-2.19.26a29.17 29.17 0 01-4-4.32c-.21-.29.61-1.35 1-2.05l5.55 5zM22.87 25.2c-.27-.23-.86-.48-.93-.83a2.06 2.06 0 01.3-1.65c1.65-1.44 3.41-2.76 5.18-4a6.3 6.3 0 011.09 1.1 175.42 175.42 0 01-4.75 5.09c-.15.09-.45.09-.89.29zM40.16 9.56c2.2-1 4.38-2.12 6.62-3 .32-.13 1.1.42 1.41.85a1.37 1.37 0 01-.37 1.26c-2.21 1.06-4.48 2-6.73 3zM15.08 34.24c-.26-.82-.91-1.88-.64-2.23a57.61 57.61 0 014.65-5.11 7.36 7.36 0 011.22 1c-1.28 1.94-2.64 3.83-4 5.71-.14.19-.44.24-1.23.63zM123.55 134c-.26-.64-.88-1.41-.71-1.89a4.38 4.38 0 011.68-1.9c1.4-1 2.91-1.76 4.38-2.63.12.56.53 1.3.31 1.65-1.26 2-2.66 3.85-4 5.76zm-13.49 6.38a5 5 0 01.5 1.58 2 2 0 01-.71 1.51 34.34 34.34 0 01-5 2.32c-.48.18-1.29-.31-1.82-.68a1.49 1.49 0 01.25-1.27c1.93-1.06 3.92-2.02 6.78-3.46zm-55.85 6.75c-.49.31-1.07 1-1.43.86a59.24 59.24 0 01-6.16-2.3 14.54 14.54 0 01.61-2.13c2.17.8 4.34 1.57 6.49 2.43.28.09.28.63.49 1.14zm46.85.23c-3.08.91-5.23 1.61-7.41 2.15a2.06 2.06 0 01-1.56-.62c-.22-.21-.17-1 0-1.32.76-1.3 6.36-1.95 8.97-.21zM144 106c-.36-.48-1.07-1-1-1.37a56.86 56.86 0 012.29-6.2 13 13 0 012.14.52c-.78 2.17-1.53 4.35-2.36 6.5-.07.21-.57.29-1.07.55zM98.87 4.12c1.94.76 3.7 1.34 5.34 2.16.44.21.53 1.14.77 1.74-.63.21-1.35.73-1.89.58a27.55 27.55 0 01-4.83-1.82 2 2 0 01-.94-1.62c.12-.46 1.03-.71 1.55-1.04zm-85.21 33.8c-1.16 1.92-2.27 3.84-3.49 5.68a1.31 1.31 0 01-1.29.11c-.38-.36-.84-1.17-.68-1.5a51.48 51.48 0 013.1-5.46c.2-.31 1.14-.34 1.65-.18.3.1.43.79.71 1.35zm125.39 78.89c-.68-1.06-1.44-1.8-1.29-2.1a51.44 51.44 0 013.28-5.78c.15-.23 1.19.12 1.82.2a16.61 16.61 0 01-.91 3.41 41.73 41.73 0 01-2.9 4.27zM2.59 80.8c.32 2.32.71 4.64.92 7 0 .4-.59 1-1 1.23a1.36 1.36 0 01-1.16-.58c-.38-2.49-.63-5-.92-7.49zm16.56 41.33l5.31 6.36c-.65.43-1.74 1.34-1.88 1.21a36 36 0 01-4.27-4.55c-.31-.35.36-1.4.84-3.02zm113.34 4.34c-.93-1.19-1.64-1.9-1.55-2 1.48-2 3.07-4 4.69-5.92a9.23 9.23 0 011.23.93c-1.31 2.19-2.7 4.36-4.37 6.99zm14.01-31.92l1.5-7.42a19.9 19.9 0 012.16.54c-.36 2.45-.86 4.87-1.34 7.29zM4.73 59.37c-.45 2.13-.68 3.72-1.16 5.24-.17.52-.95.86-1.46 1.28-.34-.56-1-1.15-1-1.67a24 24 0 01.92-5.06c.18-.58 1.12-.93 1.71-1.38zm39.17 83.54c-.56.21-1.29.77-1.64.59-2.22-1.15-4.34-2.46-6.46-3.78a8.35 8.35 0 01.72-1.31c2.36 1 4.68 2.06 7 3.12.13.47.26.92.38 1.38zM147 51.38l2.51 8.77c-3.73-1.74-4.81-4.88-3.86-8.37zm-28-37.52l5.78 5.14a16.43 16.43 0 01-1.48 1.65 48.21 48.21 0 01-5.15-4.07c-.24-.2.38-1.33.85-2.72zm-80.7-.51c-2 1.39-3.71 2.68-5.54 3.84a2 2 0 01-1.64-.07 1.42 1.42 0 01-.48-1.25c.36-1.87 5.28-3.75 7.66-2.52zM8.27 48.24c-.7 1.92-1.24 3.68-2 5.34-.21.46-1.12.6-1.71.89-.27-.59-.89-1.28-.75-1.76a31.18 31.18 0 012-5.13c.21-.43 1.17-.71 1.75-.67.25.02.49.91.71 1.33zm74.06 103.89l-2-2.14a58.23 58.23 0 016-1.72c.67-.12 1.52.71 2.29 1.1zm-19.15-1.08c-2.17-.78-4-1.4-5.76-2.12-.13-.06 0-.86.06-1.32a54.5 54.5 0 016 .48c.7.12 1.27 1.08 1.89 1.66zm87.91-72.22a6.36 6.36 0 01-.06 2.23 9.3 9.3 0 01-1.57 2c-.38-.68-1-1.35-1.09-2.06a14.07 14.07 0 01.29-4.09 8.66 8.66 0 011.27-2.26 14.64 14.64 0 011.24 2.3 5.7 5.7 0 010 1.85zm-38.77 60.55c2.43-1.68 4.26-3.07 6.24-4.2.32-.18 1.83.71 1.86 1.16.09 1.85-5.1 4.25-8.1 3.04zm-85.1-8.75c2.42 2.06 4.27 3.62 6.05 5.27a14.43 14.43 0 01-1.27 1.54 61.65 61.65 0 01-5.52-4.24c-.22-.2.34-1.2.74-2.57zM68.1.41l2.74 1.64c-.79.53-1.66 1.59-2.37 1.49-1.94-.27-4.27 2.34-5.82-.7zm77.53 46.79c-.38.49-.64 1.19-1.06 1.3A1.77 1.77 0 01143 48a46.16 46.16 0 01-2.43-5.43 1.58 1.58 0 01.74-1.4 1.65 1.65 0 011.54.52c.99 1.71 1.8 3.53 2.78 5.51zM107 10c2.86-1.3 8.19.67 8.35 2.5 0 .43-1.22 1.48-1.45 1.37-2.19-1.05-4.3-2.33-6.9-3.87zM59.63 4.77c-2.34.71-4.68 1.46-7.05 2-.15 0-.63-1.33-1-2 2.46-1.09 4.88-2.55 7.63-1.53.17.5.29 1.02.42 1.53zM3.33 73.7l-1.95 3.79c-.45-1.36-.94-2.71-1.32-4.1a2.34 2.34 0 01.14-1.45c.4-.89.94-1.71 1.42-2.57.41.87.87 1.71 1.19 2.61a4.73 4.73 0 010 1.46zm130.31-41.45c1.09-.48 1.79-1.07 2.36-1a2.76 2.76 0 011.53 1.43c.84 1.67 1.53 3.42 2.27 5.14-.43.16-1.14.56-1.24.44-1.56-1.79-3.05-3.68-4.92-6.01z"/><path class="ecls-1" d="M92.69 125.66c3.46-.79 5.07-2.4 4.54-4.68a5.79 5.79 0 00-3.7-3.57 3.08 3.08 0 00-3.81 3.71c.28 1.64 1.94 3.03 2.97 4.54zm-36.97 0h1.82c1-1.56 2.77-3.18 2.66-4.65s-2.13-3.23-3.61-3.57a3.17 3.17 0 00-3.89 3.71c.3 1.6 1.96 3.01 3.02 4.51z"/><path d="M103.38 74.78c-2 1.44-3.17 3-4.27 2.93s-2.22-1.71-3.33-2.66c1.08-1.13 2-2.88 3.28-3.18.94-.22 2.31 1.47 4.32 2.91zm-19.9-.06c-2 1.47-3.18 3-4.27 3S77 76 75.88 75.12c1-1.15 1.91-2.92 3.16-3.26.96-.24 2.32 1.42 4.44 2.86zm29.95.28c-2.12 1.37-3.39 2.83-4.5 2.72s-2.06-1.8-3.09-2.8c1.11-1.07 2.1-2.77 3.35-3 .95-.2 2.24 1.51 4.24 3.08zm-20.02-.12c-2 1.41-3.27 2.91-4.34 2.81s-2.13-1.75-3.19-2.69c1.07-1.1 2-2.83 3.25-3.09.93-.22 2.26 1.47 4.28 2.97zm-32.85 31.55c1.63-3.89 2.63-7.13 4.33-9.94a6.34 6.34 0 014.52-2.42c5.83-.28 11.68-.07 17.52-.12 3 0 4.29 1.34 4.23 4.3-.23 10.26 1.51 8.38-8.29 8.54-5.84.1-11.68 0-17.52 0-1.35 0-2.61-.19-4.79-.36zM76.26 97c-8.38-1.28-10.41.06-10.87 6.7h10c.28-2.32.61-4.4.87-6.7zm11.87-.2h-9c-.3 2.31-.58 4.55-.89 7h9.85zm4.56 28.86c-1-1.51-2.68-2.9-3-4.54a3.08 3.08 0 013.81-3.71 5.79 5.79 0 013.7 3.57c.56 2.28-1.05 3.89-4.51 4.68zm-36.97 0c-1.06-1.5-2.77-2.91-3-4.54a3.17 3.17 0 013.89-3.71c1.48.34 3.51 2.24 3.61 3.57s-1.69 3.09-2.66 4.65zM33.87 68.74c-7.08 0-6.33.86-6.28-6.41s-1.4-6.75 6.75-6.71c7.25 0 6.54-.8 6.53 6.63s.74 6.42-7 6.49zm-3.25-10.22v7.24h7.08v-7.24z"/></g></symbol><symbol viewBox="0 0 501 188" shape-rendering="geometricPrecision" text-rendering="geometricPrecision" image-rendering="optimizeQuality" fill-rule="evenodd" clip-rule="evenodd" id="mig-logo" xmlns="http://www.w3.org/2000/svg"><path d="M501 154c-2 23-17 35-44 35H318c-30 0-45-13-45-40V45h183c30 0 44 11 44 34H337c-13 0-20 5-20 15v45c0 10 7 15 20 15h99c13 0 20-5 20-15v-5H351c0-19 16-35 35-35h115v55zm-387-25l45-69c7-10 17-15 30-15h40v104c0 26 15 40 45 40h-45c-30 0-45-13-45-40V94l-54 85c-3 6-9 9-16 9s-13-4-16-10L45 94v94H0V44h40c13 0 23 5 30 15l45 69zm114-55V45c0-25 20-45 45-45v45h-15c-16 0-29 13-29 29z"/></symbol></svg>