<svg xmlns="http://www.w3.org/2000/svg" id="credit" viewBox="0 0 1188.95 999.27"><g data-name="layer_1"><path d="M0,595.39c3.53-5.56,8.68-8.91,14.61-11.64,40-18.35,79.58-37.45,119.82-55.16,32.14-14.15,64.84-27.07,97.6-39.74a174.74,174.74,0,0,1,53.1-11c17.78-1,35.66-2.05,53.43-1.37,40.77,1.55,79.73,10.61,115.32,31.49,19.53,11.46,36.5,26,51.56,42.87,4.82,5.39,9.82,10.65,14.42,16.22,8.33,10.11,20.26,13.78,31.86,17.76,14.42,5,29.08,9.21,43.71,13.51a8.47,8.47,0,0,0,6.13-.88c28.51-17.74,56.85-35.74,85.36-53.49,23.76-14.79,47.54-29.55,71.57-43.9,19.53-11.65,40.78-18.61,63.36-21.66,15.6-2.1,31.06-2.05,46.4,1.65a60.62,60.62,0,0,1,24.89,12.22c5.74,4.78,10.4,10.37,12.39,17.82.63,2.38,1.6,4.67,2.42,7.05,8.66-3.3,17.2-6.88,26-9.8,15.06-5,30.5-8.42,46.49-7.73,18.55.81,35.51,6.16,49.14,19.43,3.52,3.44,6.39,7.58,9.35,11.55a16.19,16.19,0,0,1,3,11.63c-.21,2.18,0,4.39,0,7.11,5.95-2.43,11.38-4.79,16.91-6.86,18.13-6.79,36.54-12.55,56.23-11.42,34.84,2,65.55,23.36,72.59,60.07,3.53,18.39-.23,35.61-9.35,51.79-12.87,22.86-31.9,39.82-53.24,54.23q-92.67,62.58-185.76,124.56-73.2,48.63-147.07,96.26c-29.76,19.21-59.93,37.81-90.22,56.19-19.57,11.89-40.71,20.17-63.52,23.56-18.55,2.75-37,1.78-55.41-1.65-30.6-5.69-58.33-18.77-85.65-32.94Q425.72,925.92,354,888.73c-21-10.85-41.89-21.84-63.16-32.09-7.16-3.45-15.2-5.52-23.07-6.95-10-1.82-19.21,2-27.53,7.26-25.31,16-50.6,32.12-75.61,48.63-14.11,9.31-31,3.8-36.84-9.66a23.79,23.79,0,0,1,8.66-29.35q23.64-15.69,47.54-31c11.74-7.5,23.47-15,35.59-21.87,27.39-15.43,55.84-16.26,84.25-3.51,19.93,8.95,39.28,19.21,58.74,29.2,58.83,30.19,117.53,60.66,176.42,90.74,18,9.17,36.74,16.3,56.73,20,23.89,4.43,46.76,1.51,68.15-9.75,15.27-8,30.13-17,44.66-26.29Q799,856,889.08,797.38c55.64-36.46,110.89-73.53,166.24-110.45,16.88-11.26,33.75-22.57,50.16-34.49,12.65-9.18,24.13-19.81,31.82-33.78,2.94-5.34,5.52-11,4.54-17.35-1.83-12-14-21.82-26.74-22.49-17.66-.93-33.89,4.28-49.89,10.75-22.09,8.94-41.4,22.63-61,35.81q-35.64,24-71.21,48c-36.92,24.91-73.7,50-110.86,74.59-8,5.32-14.94,11.93-22.87,17.24-14.64,9.81-31,15.36-48.34,17.42a388.17,388.17,0,0,1-43.25,2.68q-68.58.45-137.16,0a397.4,397.4,0,0,1-77.88-8.49c-23.44-4.83-46.77-10.27-70.06-15.77a23.93,23.93,0,0,1-18.42-23.4,23.68,23.68,0,0,1,18.7-23.08,28.37,28.37,0,0,1,12.86.36c27,7.17,54.32,13.11,81.91,17.57A390.75,390.75,0,0,0,579,737.8c44.34.09,88.69.17,133,0,17.32-.08,34.68-1.06,51.08-7.4a70.36,70.36,0,0,0,15.48-8.73,13.24,13.24,0,0,0,5.08-7.93,84.34,84.34,0,0,0,.65-19.63c-.73-7.76-6.66-12.16-12.86-16-8.75-5.38-18.46-8-28.5-9.16-9.63-1.15-19.33-2.08-29-2.33-24.73-.63-49.13-3.89-73.35-8.67-14.72-2.91-29.62-5.31-44-9.49-25.45-7.41-51.37-13.37-75.89-23.82-20-8.52-36.07-21.9-50.34-37.91-11.7-13.13-23.31-26.38-37.95-36.49-17.43-12-36.94-18.63-57.58-22.3-25.94-4.62-52.11-5-78.31-3.68-25.75,1.31-50.14,8.14-73.73,18.47C190.3,557,157.42,570.38,125,584.82c-28.6,12.72-56.78,26.37-85.19,39.52-5,2.33-10.12,5.15-15.47,6.06-10.5,1.79-18.56-3-24.32-11.77Zm830.7,89.18a24,24,0,0,0,2.14-1.13q44.25-29.81,88.51-59.63,37.3-25.11,74.61-50.23c1-.7,2.47-1.86,2.5-2.84.18-5,.51-10-.39-14.82-.43-2.34-3.08-4.76-5.34-6.15a15.82,15.82,0,0,0-8.14-2.28c-8.43.16-17,.07-25.24,1.56-20.71,3.75-40,11-57.25,23.7-19.63,14.44-40,27.9-60,41.76-13.06,9-26.14,18-39.52,27.23A77.87,77.87,0,0,1,830.7,684.57Zm-164.08-72v1.21c11,1.37,21.9,3.12,32.9,4,14.29,1.14,28.65,1.33,42.94,2.5,4.32.36,7.61-.36,10.91-3s6.74-4.67,10.12-7q49.63-33.89,99.29-67.72c2.74-1.86,3.18-4,2.82-6.94-.72-5.94-5-7.93-9.84-9.25-9.23-2.52-18.51-1.63-27.76-.07-16.54,2.78-32.69,7.15-47.06,15.86C742.67,565.42,704.71,589.11,666.62,612.6Z"/><path d="M618.49,141.9c.45-15.66,2.74-31.24,8.19-46.22,12.18-33.48,33.62-59.25,64.51-77.06A137,137,0,0,1,761,0c37.64.09,70.28,13.08,97.86,38.7,19.83,18.41,33.55,40.68,40.4,66.81,10.35,39.46,5.17,77.06-16.15,111.93-18.51,30.27-45,50.88-78.86,61.68a182,182,0,0,1-18.06,4.37c-2.54.53-3.16,1.46-2.71,4,2.91,16.63,2.33,33.28-.54,49.84a164.6,164.6,0,0,1-24.43,62.28,167,167,0,0,1-62.06,57,165,165,0,0,1-144,5.56c-37.33-16.49-65.14-43.13-83.35-79.62a160.48,160.48,0,0,1-16.45-60.39q-4.62-62,32.26-111.84c25.4-34.33,59.5-55.7,101.29-64.36C596.66,143.79,607.41,143.24,618.49,141.9ZM499.89,309.31a118.84,118.84,0,1,0,119-118.83C553,190.39,499.61,243.61,499.89,309.31ZM761.17,47.14c-7,1-14.15,1.38-21,3-33.15,8-55.9,28.21-68,60-4.56,11.92-6.78,24.4-5.29,37.32.24,2,1,2.87,3,3.57,6.42,2.32,12.89,4.6,19,7.54C721.25,174.13,746.25,197.67,764,229c1.55,2.76,2.79,6.73,5.17,7.72,2.68,1.1,6.52-.42,9.81-1,51.26-9.21,85.36-57.31,76.18-109.8C847.14,80.23,807.33,47.42,761.17,47.14Z"/><path d="M639.84,374.08H597.09V288H563.86c1-1.27,1.56-2,2.21-2.68q19.32-19.37,38.72-38.66a6.28,6.28,0,0,1,3.68-2c10.36-.16,20.72-.09,31.37-.09Z"/><path d="M779.38,89.22v107H743.6V125.07H715.35c1.44-1.55,2.22-2.46,3.07-3.31,10.06-10.07,20.07-20.18,30.26-30.12a8.93,8.93,0,0,1,5.42-2.32C762.42,89.08,770.75,89.22,779.38,89.22Z"/></g></svg>