<svg xmlns="http://www.w3.org/2000/svg" id="factoring" viewBox="0 0 138.59 138.75"><g data-name="layer_1"><path d="M82.66,86.44c0,10.2,0,20.41,0,30.61,0,3.93-2.3,6.37-5.52,6s-4.55-2.35-4.57-5.39c0-5.11-.06-10.23,0-15.34,0-2.32-.89-2.91-3.22-1.83,0,5.28,0,10.63,0,16,0,4.55-1.65,6.6-5.22,6.63s-5.42-2.18-5.43-6.52c0-10.09,0-20.19,0-30.88-.73.79-1.06,1.47-1.53,1.6-1.87.53-4.27,1.77-5.53,1.07s-2.38-3.74-1.89-5.19A123,123,0,0,1,56.45,67a12,12,0,0,1,10.88-6.84c3.69-.07,7.74-.28,11,1.1,2.9,1.24,5.52,4.2,7.18,7,2.37,4,3.69,8.69,5.59,13,1.22,2.76,1.82,5.41-1.23,7.2C87,90.13,84.87,88.73,82.66,86.44ZM80.28,76l1.29-.32a19.8,19.8,0,0,1,1.65,2.55c.78,1.7,1.25,3.56,2.18,5.16a15.39,15.39,0,0,0,2.81,2.84c.1-1.3.62-2.76.22-3.88-1.54-4.21-3.38-8.31-5.1-12.45-2-5-5.89-7.11-11.13-7.32-5.86-.23-11.09.88-13.86,6.7-2.13,4.5-4,9.15-5.73,13.81-.33.86.31,2.1.51,3.16.8-.61,1.92-1,2.34-1.86,1.08-2.1,1.77-4.39,2.79-6.52.38-.78,1.27-1.32,1.92-2a18.06,18.06,0,0,1,1.28,2.71,7.89,7.89,0,0,1,0,2.23q0,17.79,0,35.56c0,1.77-.16,3.77,2.39,3.83,2.7.08,2.77-1.92,2.76-3.9,0-5.12.24-10.25-.07-15.34-.22-3.76,1.71-3.87,4.55-3.94,3-.07,4.27.72,4.12,4-.24,5.36-.19,10.73,0,16.09,0,1.07,1.51,2.08,2.32,3.11a14.61,14.61,0,0,0,2.17-2.93,8.37,8.37,0,0,0,.09-3q0-17,0-34.06C79.91,78.79,80.15,77.37,80.28,76Z"/><path d="M35.65,77.05c-.08,1.63-.2,3.26-.22,4.89,0,2.87,0,5.74,0,8.61S34,95.32,30.93,95.34s-4.54-1.72-4.55-4.72c0-6.36,0-12.72,0-19.09V68.05c-2.43-.29-5.32.17-6.18-.94-1-1.33-.68-4.08-.23-6.06.55-2.39,2-4.56,2.78-6.91,1.75-5.1,4.87-8.65,10.06-9.58-1.45-2.13-3.77-4.12-4.07-6.38a10.68,10.68,0,0,1,2.21-7.38c2.74-3.38,8.38-2.77,11.25.59,3.33,3.89,2.13,8.91-3.49,13,6.56.89,9.43,5.21,11.23,10.67.74,2.24,2.13,4.3,2.6,6.58.38,1.84.51,4.49-.53,5.65s-3.59.49-6.06.69V86.66c0,1.24,0,2.49,0,3.74,0,3-1.23,4.92-4.31,4.91s-4.25-2.15-4.27-5c0-3.37,0-6.73,0-10.1A24,24,0,0,0,36.86,77ZM27.29,56.92l1.37.3a38,38,0,0,1,.48,4.21c0,9.11-.05,18.22.11,27.32,0,1.26,1.16,2.51,1.79,3.76.52-1.22,1.45-2.42,1.51-3.66.18-4,.07-8,0-12-.06-3.29,2.35-2.48,4.22-2.63s3.4.16,3.31,2.73c-.14,4-.18,8,0,12,.07,1.19,1.1,2.33,1.69,3.49.47-1.14,1.32-2.27,1.33-3.41.12-9.36,0-18.71.11-28.07A20.84,20.84,0,0,1,44,57.11L45.17,57q2.13,4.3,4.28,8.61l1.71-.88c-2.42-5.05-4.68-10.18-7.37-15.07-.64-1.16-2.66-1.91-4.16-2.19-7.63-1.42-11.35.7-14.36,7.88-1,2.41-2.05,4.81-3,7.25a13.1,13.1,0,0,0-.46,2.6l1,.38Zm14-20.51a5.38,5.38,0,0,0-5.43-5A5.34,5.34,0,0,0,31,36.55a5.16,5.16,0,0,0,10.31-.14Z"/><path d="M103,43.64c-3.78-3-5.2-6.25-3.64-10a7.46,7.46,0,0,1,7.63-5,7.37,7.37,0,0,1,7.21,5.49c1.27,3.89-.09,6.75-4.9,10.17,6.33.86,9.29,5,11.09,10.41.75,2.24,2.1,4.31,2.6,6.59.42,1.87.75,4.59-.26,5.7s-3.71.72-6.24,1.07c0,6.93,0,14.86,0,22.78,0,2.84-1.57,4.52-4.42,4.41-2.62-.1-4-1.76-4.1-4.4,0-1.62,0-3.24,0-4.87v-9l-1.35-.1a7.62,7.62,0,0,0-.68,2.09c-.06,3.37,0,6.73,0,10.1,0,4.45-1.29,6.25-4.57,6.21-3.09,0-4.46-1.85-4.47-6,0-7.35,0-14.7,0-22.43-1.09.52-1.92,1.26-2.72,1.22-1.26-.07-3-.27-3.63-1.11a4.93,4.93,0,0,1-.73-4c1.49-4.23,2.86-8.65,5.29-12.33C97,47.79,100.42,45.88,103,43.64Zm17,22,1.52-.71c-1.55-3.84-3.13-7.68-4.65-11.53-1.67-4.2-4.64-6.16-9.24-6.1-6.9.09-8.87,1.26-11.59,7.73-.87,2.06-1.78,4.12-2.58,6.21-.49,1.26-.8,2.59-1.2,3.9l1.39.55c.84-1.9,1.55-3.87,2.56-5.68a15.57,15.57,0,0,1,2.48-2.74,12.23,12.23,0,0,1,1,3.29c.09,7.85,0,15.71,0,23.57a58.42,58.42,0,0,0,.1,6.35c.08.72,1.06,1.34,1.63,2,.61-.66,1.55-1.23,1.74-2a15.39,15.39,0,0,0,.06-3.72V74.55c1.32-.14,2.06-.18,2.79-.29,3.45-.55,5,.58,4.67,4.37a71.75,71.75,0,0,0,0,10.47c.06,1.14.92,2.25,1.42,3.38.58-1.18,1.64-2.34,1.66-3.52.14-9.35.06-18.71.1-28.06a28.66,28.66,0,0,1,.45-3.68l1.29-.3Zm-8.16-29a5.19,5.19,0,0,0-5.09-5.29,5.4,5.4,0,0,0-5.13,4.93,5.26,5.26,0,0,0,4.77,5.23A5.07,5.07,0,0,0,111.83,36.67Z"/><path d="M55.2,132.79l-1.57-2.63c.83-1.87,3.81-.11,7.23,4.31-2.19,1.93-3.57,5.14-7.77,4.07l1.77-2.8c-2.91-.59-5.74-1-8.46-1.75-13.63-3.82-24.67-11.58-33.5-22.53-.69-.85-.68-2.28-1-3.44,1.05.59,2.38,1,3.12,1.81C25.16,121.61,37.36,129.9,53,132.54,53.55,132.64,54.16,132.67,55.2,132.79Z"/><path d="M87,5.94l1.51,3.14c-4.36.69-4.95-3.06-7-5.37,2.55-1.85,4.3-5,8.36-3.18l-2,2.15c4.64,1.93,9.34,3.53,13.71,5.77,10.57,5.43,18.65,13.64,25,23.61a5.34,5.34,0,0,1,.42,4C116.72,22,105,10.37,87,5.94Z"/><path d="M6.28,89.89,8,87c3,3.43,0,5.82-.58,8.89C4.19,94.55.72,94.63,0,90.37L3.28,91c-.79-3.26-1.7-6.22-2.21-9.25C-1.17,68.35,1,55.5,6.72,43.23c.56-1.21,2-2,3-3a15.16,15.16,0,0,1-.56,3.93c-6,14-8.24,28.39-3.85,43.34C5.54,88.2,5.87,88.85,6.28,89.89Z"/><path d="M132.37,50.19l-1.82,3.17c-3-3.42,0-5.86.55-9.08,3,1.49,6.57,1.31,7.47,5.59L135,49.11c3.13,8.8,4.53,17.72,3,26.62-1.35,7.64-4,15.06-6.24,22.54-.23.79-1.48,1.28-2.26,1.91-.06-1.06-.51-2.29-.13-3.15C135.9,82,138,66.74,132.37,50.19Z"/><path d="M23,23.42l3.26.39c-2.22,3.06-2.85,3.27-8.87,2.91l.68-8.28,1.25,0,1.26,3.05C32.73,9.49,47.36,3.82,64,3.14a40.72,40.72,0,0,1,4.79.33l.1,1.5a29.41,29.41,0,0,1-3.79.72C50.59,6.63,37.2,10.59,26,20.37c-.66.57-1.31,1.16-1.93,1.76C23.79,22.39,23.59,22.7,23,23.42Z"/><path d="M117.79,118.07l-3.52-.38c.52-.74.84-1.69,1.28-1.75,2.2-.3,4.61-1,6.6-.34,1.72.53,1.14,5.13-.87,7.44l-1.35-3.25a49.61,49.61,0,0,1-23.47,14.88c-6.9,2-14.14,2.77-21.25,3.88-1,.17-2.26-.84-3.39-1.3,1.09-.49,2.15-1.34,3.26-1.39,15.58-.76,29.61-5.38,41.23-16.17C116.76,119.28,117.13,118.8,117.79,118.07Z"/><path d="M71.63,58.86a9.16,9.16,0,0,1-9.32-9.48,9.49,9.49,0,1,1,19,.32A9.17,9.17,0,0,1,71.63,58.86Zm0-16.12a6.67,6.67,0,0,0-6.54,7.11A6.86,6.86,0,0,0,72,56.3a7.17,7.17,0,0,0,6.63-6.83A6.84,6.84,0,0,0,71.63,42.74Z"/></g></svg>