<svg xmlns="http://www.w3.org/2000/svg" id="lease" viewBox="0 0 151.27 152.18"><g data-name="layer_1"><path d="M89,68.32v-4c-2.5-2.82-7.85,2.41-8.53-3.67-.65-5.71-.25-6.22,3.42-7.41,0-2.62.05-5.35,0-8.07-.06-2.1.6-3.66,2.93-3.17,6.66,1.41,10.32-2.16,13.4-7.34a72.53,72.53,0,0,1,6.43-8.72,5.77,5.77,0,0,1,8.88-.65c6.93,6.46,13.81,13,20.53,19.68.87.87,1.35,3.53.73,4.24-2,2.31-1.07,4.35-.2,6.49s.39,3.28-1.82,3.92c-2.39.69-4.71,1.65-7.11,2.32a7.09,7.09,0,0,1-9.11-7.13c0-.75,1.22-1.75,2.09-2.1,3-1.19,6-2.14,9.94-3.48L112,34.67c-2.55,5.75-7.63,10-6.65,17a40.36,40.36,0,0,1,0,5.61c0,5.81,0,5.81-5.63,6.55v4.49c4.59,0,9.15,0,13.72,0,5.25,0,6.25,1.08,6.25,6.45s-1.06,6.59-6.11,6.6q-19.09,0-38.2,0c-4.84,0-6-1.35-6-6.78,0-5,1.21-6.24,6.12-6.27C79.91,68.3,84.26,68.32,89,68.32Zm13.28-7.77c0-4.07.29-8.13-.16-12.11a5.09,5.09,0,0,0-3.47-3.36A100.72,100.72,0,0,0,87,44.92V60.55Zm-7.63,18c6.47,0,12.94-.1,19.4,0,3,.07,3.1-1.62,3.13-3.81S116.8,71,113.92,71c-12.82.1-25.64.14-38.45,0-3.28,0-3.13,1.82-3.23,4.07-.11,2.5.62,3.59,3.34,3.52C81.92,78.43,88.27,78.55,94.61,78.54ZM106.26,31,98.42,41.65l5.07,2.56,5.45-9.91Zm15.41,24.26c1.83,5.39,3.56,5.53,12.15,1.27l-1.73-4.84Zm8.66-10.45L117,30.57l-2,3c5,3.85,9.79,7.56,14.61,11.24C129.84,44.94,130.28,44.8,130.33,44.8ZM96.6,68.12V63.77H92.17v4.35Zm18.25-38.76c-1.62-1.11-2.62-2.32-3.4-2.19s-1.52,1.51-2.27,2.35c.75.66,1.49,1.84,2.24,1.85S113.23,30.38,114.85,29.36Z"/><path d="M97.13,103.35c2.7,0,4.92-.06,7.13,0,7.52.24,12.1,8.09,8.19,14.51-.91,1.5-3.31,2.28-5.19,3-1.21.43-2.7.08-4,.08-3,7.48-5.43,9.57-10.48,9.26-4.5-.28-7.21-3-8.68-9H66.3c-3.15,7.44-5.59,9.49-10.81,9-4.29-.38-6.9-3.12-8.31-8.74-.2-.14-.39-.37-.61-.39-5.82-.51-8.1-2.09-8.54-5.94-.52-4.49,2.77-9.52,7.36-11a11.89,11.89,0,0,1,4.4-.69c4.14.28,6.55-1.72,8-5.36.6-1.5,1.45-2.89,2.1-4.38a5.91,5.91,0,0,1,5.86-3.82c8.74,0,17.47,0,26.21,0,3.57,0,5.06,1.7,5.15,5.41C97.18,97.75,97.13,100.23,97.13,103.35ZM105,119c2.15-1.12,4.35-1.52,5.09-2.79a6.71,6.71,0,0,0-5.92-10c-10.15,0-10.17.65-9.87-10,.08-2.9-1.09-3.59-3.75-3.54-7.1.13-14.23.3-21.31-.09-4.43-.24-6.94,1.21-8.36,5.38-1.92,5.68-5.71,8.69-12.12,8.36-4-.2-7.6,3.06-7.7,6.7a6.1,6.1,0,0,0,2.34,4.71,3.88,3.88,0,0,0,5.46-1.36c4.09-5.89,11-5.76,15.36-.16A5.36,5.36,0,0,0,67.77,118c4.61.21,9.23,0,13.84.11a4.75,4.75,0,0,0,4.57-2.28c3.67-5.2,10.7-5.06,14.73-.12C101.93,117,103.47,117.81,105,119Zm-5.19,2.2a6.53,6.53,0,0,0-6.36-6.44,6.34,6.34,0,1,0,6.36,6.44Zm-43.13,6.22a6.34,6.34,0,0,0,6.09-6.62,6.41,6.41,0,0,0-6.31-6.06,6.52,6.52,0,0,0-6.34,6.46A6.44,6.44,0,0,0,56.72,127.46Z"/><path d="M72.5,50.41,65,51.17c-.08,1.21-.21,2.52-.22,3.82,0,8-.1,16,0,23.94.05,2.63-.83,3.46-3.43,3.44q-18.15-.15-36.31,0c-2.5,0-3.21-1-3.18-3.32C22,71.32,22,63.59,22,55.86V51.21l-7.39-.65c1.07-1.38,1.56-2.44,2.39-3,8.09-5.62,16.19-11.22,24.41-16.64a4.34,4.34,0,0,1,3.88,0C53.59,36.37,61.78,42.05,70,47.72A21.85,21.85,0,0,1,72.5,50.41Zm-47.64.64V79.34H43.7c0-4.36-.06-8.34,0-12.32.07-3.59-1.1-8.68.76-10.37,2.13-1.92,7-.67,10.68-1.07,3.47-.38,4.23,1.13,4.1,4.28-.22,5.6-.13,11.21,0,16.81,0,1,.87,2,1.33,3,.46-.95,1.31-1.89,1.33-2.85.11-6.85.06-13.7.06-20.55V51.05ZM21.37,47.9h44l-22-15.07ZM56.26,79.48V58.64H46.61V79.48Z"/><path d="M78.19,0l4.24,2.12c-1.44.43-2.9,1.24-4.33,1.2s-2.63-1-3.94-1.51Z"/><path d="M4.12,92.18a17.31,17.31,0,0,1,1.31,3.55,31.17,31.17,0,0,1,.07,4.64,22.62,22.62,0,0,1-2.69-4.15c-.43-1.15-.08-2.59-.08-3.9Z"/><path d="M94,4.58c-2.63,1.23-5.16-.16-7.73-.78a14.83,14.83,0,0,1,.64-2.16c2.47.39,4.92.93,7.38,1.44C94.21,3.58,94.11,4.08,94,4.58Z"/><path d="M7.26,102.89a16.28,16.28,0,0,1,1.68,2.67c.64,1.66,1.1,3.39,1.64,5.09-.54.14-1.5.5-1.55.39-1.13-2.15-2.19-4.34-3.12-6.58C5.81,104.24,6.59,103.64,7.26,102.89Z"/><path d="M17.82,120.4c-1.56.2-2.75.65-3,.34a35.36,35.36,0,0,1-3.52-5.22c-.12-.22,1-1.13,1.52-1.72C14.28,115.75,15.76,117.69,17.82,120.4Z"/><path d="M150,62.79c.32,2.34.71,4.68.92,7,0,.43-.53,1.07-1,1.33-.26.15-1.19-.19-1.24-.43-.51-2.59-1.78-5.22-.37-7.79Z"/><path d="M73,151.64a6.26,6.26,0,0,1-2.21,0,9.72,9.72,0,0,1-2.1-1.58,16.09,16.09,0,0,1,2.37-1.14,3.24,3.24,0,0,1,1.85.06c1.33.44,2.62,1,3.93,1.56l-3.63,1.69Z"/><path d="M133.25,28.38c-.75.11-1.82.58-2.19.26a29.17,29.17,0,0,1-4-4.32c-.21-.29.61-1.35,1-2.05l5.55,5Z"/><path d="M22.87,25.2c-.27-.23-.86-.48-.93-.83a2.06,2.06,0,0,1,.3-1.65c1.65-1.44,3.41-2.76,5.18-4a6.3,6.3,0,0,1,1.09,1.1c-1.54,1.73-3.14,3.42-4.75,5.09C23.61,25,23.31,25,22.87,25.2Z"/><path d="M40.16,9.56c2.2-1,4.38-2.12,6.62-3,.32-.13,1.1.42,1.41.85a1.37,1.37,0,0,1-.37,1.26c-2.21,1.06-4.48,2-6.73,3Z"/><path d="M15.08,34.24c-.26-.82-.91-1.88-.64-2.23a57.61,57.61,0,0,1,4.65-5.11,7.36,7.36,0,0,1,1.22,1c-1.28,1.94-2.64,3.83-4,5.71C16.17,33.8,15.87,33.85,15.08,34.24Z"/><path d="M123.55,134c-.26-.64-.88-1.41-.71-1.89a4.38,4.38,0,0,1,1.68-1.9c1.4-1,2.91-1.76,4.38-2.63.12.56.53,1.3.31,1.65-1.26,2-2.66,3.85-4,5.76Z"/><path d="M110.06,140.38a5,5,0,0,1,.5,1.58,2,2,0,0,1-.71,1.51,34.34,34.34,0,0,1-5,2.32c-.48.18-1.29-.31-1.82-.68a1.49,1.49,0,0,1,.25-1.27C105.21,142.78,107.2,141.82,110.06,140.38Z"/><path d="M54.21,147.13c-.49.31-1.07,1-1.43.86a59.24,59.24,0,0,1-6.16-2.3,14.54,14.54,0,0,1,.61-2.13c2.17.8,4.34,1.57,6.49,2.43C54,146.08,54,146.62,54.21,147.13Z"/><path d="M101.06,147.36c-3.08.91-5.23,1.61-7.41,2.15a2.06,2.06,0,0,1-1.56-.62c-.22-.21-.17-1,0-1.32C92.85,146.27,98.45,145.62,101.06,147.36Z"/><path d="M144,106c-.36-.48-1.07-1-1-1.37a56.86,56.86,0,0,1,2.29-6.2,13,13,0,0,1,2.14.52c-.78,2.17-1.53,4.35-2.36,6.5C145,105.66,144.5,105.74,144,106Z"/><path d="M98.87,4.12c1.94.76,3.7,1.34,5.34,2.16.44.21.53,1.14.77,1.74-.63.21-1.35.73-1.89.58a27.55,27.55,0,0,1-4.83-1.82,2,2,0,0,1-.94-1.62C97.44,4.7,98.35,4.45,98.87,4.12Z"/><path d="M13.66,37.92c-1.16,1.92-2.27,3.84-3.49,5.68a1.31,1.31,0,0,1-1.29.11c-.38-.36-.84-1.17-.68-1.5a51.48,51.48,0,0,1,3.1-5.46c.2-.31,1.14-.34,1.65-.18C13.25,36.67,13.38,37.36,13.66,37.92Z"/><path d="M139.05,116.81c-.68-1.06-1.44-1.8-1.29-2.1a51.44,51.44,0,0,1,3.28-5.78c.15-.23,1.19.12,1.82.2a16.61,16.61,0,0,1-.91,3.41A41.73,41.73,0,0,1,139.05,116.81Z"/><path d="M2.59,80.8c.32,2.32.71,4.64.92,7,0,.4-.59,1-1,1.23a1.36,1.36,0,0,1-1.16-.58c-.38-2.49-.63-5-.92-7.49Z"/><path d="M19.15,122.13l5.31,6.36c-.65.43-1.74,1.34-1.88,1.21a36,36,0,0,1-4.27-4.55C18,124.8,18.67,123.75,19.15,122.13Z"/><path d="M132.49,126.47c-.93-1.19-1.64-1.9-1.55-2,1.48-2,3.07-4,4.69-5.92a9.23,9.23,0,0,1,1.23.93C135.55,121.67,134.16,123.84,132.49,126.47Z"/><path d="M146.5,94.55l1.5-7.42a19.9,19.9,0,0,1,2.16.54c-.36,2.45-.86,4.87-1.34,7.29Z"/><path d="M4.73,59.37c-.45,2.13-.68,3.72-1.16,5.24-.17.52-.95.86-1.46,1.28-.34-.56-1-1.15-1-1.67a24,24,0,0,1,.92-5.06c.18-.58,1.12-.93,1.71-1.38Z"/><path d="M43.9,142.91c-.56.21-1.29.77-1.64.59-2.22-1.15-4.34-2.46-6.46-3.78a8.35,8.35,0,0,1,.72-1.31c2.36,1,4.68,2.06,7,3.12C43.65,142,43.78,142.45,43.9,142.91Z"/><path d="M147,51.38l2.51,8.77c-3.73-1.74-4.81-4.88-3.86-8.37Z"/><path d="M119,13.86,124.78,19a16.43,16.43,0,0,1-1.48,1.65,48.21,48.21,0,0,1-5.15-4.07C117.91,16.38,118.53,15.25,119,13.86Z"/><path d="M38.3,13.35c-2,1.39-3.71,2.68-5.54,3.84a2,2,0,0,1-1.64-.07,1.42,1.42,0,0,1-.48-1.25C31,14,35.92,12.12,38.3,13.35Z"/><path d="M8.27,48.24c-.7,1.92-1.24,3.68-2,5.34-.21.46-1.12.6-1.71.89-.27-.59-.89-1.28-.75-1.76a31.18,31.18,0,0,1,2-5.13c.21-.43,1.17-.71,1.75-.67C7.81,46.93,8.05,47.82,8.27,48.24Z"/><path d="M82.33,152.13l-2-2.14a58.23,58.23,0,0,1,6-1.72c.67-.12,1.52.71,2.29,1.1Z"/><path d="M63.18,151.05c-2.17-.78-4-1.4-5.76-2.12-.13-.06,0-.86.06-1.32a54.5,54.5,0,0,1,6,.48c.7.12,1.27,1.08,1.89,1.66Z"/><path d="M151.09,78.83a6.36,6.36,0,0,1-.06,2.23,9.3,9.3,0,0,1-1.57,2c-.38-.68-1-1.35-1.09-2.06a14.07,14.07,0,0,1,.29-4.09,8.66,8.66,0,0,1,1.27-2.26,14.64,14.64,0,0,1,1.24,2.3,5.7,5.7,0,0,1,0,1.85Z"/><path d="M112.32,139.38c2.43-1.68,4.26-3.07,6.24-4.2.32-.18,1.83.71,1.86,1.16C120.51,138.19,115.32,140.59,112.32,139.38Z"/><path d="M27.22,130.63c2.42,2.06,4.27,3.62,6.05,5.27A14.43,14.43,0,0,1,32,137.44a61.65,61.65,0,0,1-5.52-4.24C26.26,133,26.82,132,27.22,130.63Z"/><path d="M68.1.41l2.74,1.64c-.79.53-1.66,1.59-2.37,1.49-1.94-.27-4.27,2.34-5.82-.7Z"/><path d="M145.63,47.2c-.38.49-.64,1.19-1.06,1.3A1.77,1.77,0,0,1,143,48a46.16,46.16,0,0,1-2.43-5.43,1.58,1.58,0,0,1,.74-1.4,1.65,1.65,0,0,1,1.54.52C143.84,43.4,144.65,45.22,145.63,47.2Z"/><path d="M107,10c2.86-1.3,8.19.67,8.35,2.5,0,.43-1.22,1.48-1.45,1.37C111.71,12.82,109.6,11.54,107,10Z"/><path d="M59.63,4.77c-2.34.71-4.68,1.46-7.05,2-.15,0-.63-1.33-1-2,2.46-1.09,4.88-2.55,7.63-1.53C59.38,3.74,59.5,4.26,59.63,4.77Z"/><path d="M3.33,73.7,1.38,77.49C.93,76.13.44,74.78.06,73.39A2.34,2.34,0,0,1,.2,71.94c.4-.89.94-1.71,1.42-2.57.41.87.87,1.71,1.19,2.61a4.73,4.73,0,0,1,0,1.46Z"/><path d="M133.64,32.25c1.09-.48,1.79-1.07,2.36-1a2.76,2.76,0,0,1,1.53,1.43c.84,1.67,1.53,3.42,2.27,5.14-.43.16-1.14.56-1.24.44C137,36.47,135.51,34.58,133.64,32.25Z"/><path class="cls-1" d="M92.69,125.66c3.46-.79,5.07-2.4,4.54-4.68a5.79,5.79,0,0,0-3.7-3.57,3.08,3.08,0,0,0-3.81,3.71C90,122.76,91.66,124.15,92.69,125.66Z"/><path class="cls-1" d="M55.72,125.66l1.82,0c1-1.56,2.77-3.18,2.66-4.65s-2.13-3.23-3.61-3.57a3.17,3.17,0,0,0-3.89,3.71C53,122.75,54.66,124.16,55.72,125.66Z"/><path d="M103.38,74.78c-2,1.44-3.17,3-4.27,2.93S96.89,76,95.78,75.05c1.08-1.13,2-2.88,3.28-3.18C100,71.65,101.37,73.34,103.38,74.78Z"/><path d="M83.48,74.72c-2,1.47-3.18,3-4.27,3S77,76,75.88,75.12c1-1.15,1.91-2.92,3.16-3.26C80,71.62,81.36,73.28,83.48,74.72Z"/><path d="M113.43,75c-2.12,1.37-3.39,2.83-4.5,2.72s-2.06-1.8-3.09-2.8c1.11-1.07,2.1-2.77,3.35-3C110.14,71.72,111.43,73.43,113.43,75Z"/><path d="M93.41,74.88c-2,1.41-3.27,2.91-4.34,2.81S86.94,75.94,85.88,75c1.07-1.1,2-2.83,3.25-3.09C90.06,71.69,91.39,73.38,93.41,74.88Z"/><path d="M60.56,106.43c1.63-3.89,2.63-7.13,4.33-9.94a6.34,6.34,0,0,1,4.52-2.42c5.83-.28,11.68-.07,17.52-.12,3,0,4.29,1.34,4.23,4.3-.23,10.26,1.51,8.38-8.29,8.54-5.84.1-11.68,0-17.52,0C64,106.79,62.74,106.6,60.56,106.43ZM76.26,97c-8.38-1.28-10.41.06-10.87,6.7h10C75.67,101.38,76,99.3,76.26,97Zm11.87-.2h-9c-.3,2.31-.58,4.55-.89,7h9.85Z"/><path d="M92.69,125.66c-1-1.51-2.68-2.9-3-4.54a3.08,3.08,0,0,1,3.81-3.71,5.79,5.79,0,0,1,3.7,3.57C97.76,123.26,96.15,124.87,92.69,125.66Z"/><path d="M55.72,125.66c-1.06-1.5-2.77-2.91-3-4.54a3.17,3.17,0,0,1,3.89-3.71c1.48.34,3.51,2.24,3.61,3.57s-1.69,3.09-2.66,4.65Z"/><path d="M33.87,68.74c-7.08,0-6.33.86-6.28-6.41s-1.4-6.75,6.75-6.71c7.25,0,6.54-.8,6.53,6.63S41.61,68.67,33.87,68.74ZM30.62,58.52v7.24H37.7V58.52Z"/></g></svg>