<?xml version="1.0" encoding="UTF-8"?>
<!DOCTYPE svg PUBLIC "-//W3C//DTD SVG 1.1//EN" "http://www.w3.org/Graphics/SVG/1.1/DTD/svg11.dtd">
<!-- Creator: CorelDRAW X6 -->
<svg xmlns="http://www.w3.org/2000/svg" xml:space="preserve" width="39.6875mm" height="14.9302mm" version="1.1" style="shape-rendering:geometricPrecision; text-rendering:geometricPrecision; image-rendering:optimizeQuality; fill-rule:evenodd; clip-rule:evenodd"
viewBox="0 0 501 188"
 xmlns:xlink="http://www.w3.org/1999/xlink">
 <defs>
  <style type="text/css">
   <![CDATA[
    .fil0 {fill:#ECECDF;fill-rule:nonzero}
   ]]>
  </style>
 </defs>
 <g id="Слой_x0020_1">
  <metadata id="CorelCorpID_0Corel-Layer"/>
  <path class="fil0" d="M501 154c-2,23 -17,35 -44,35l-139 0c-30,0 -45,-13 -45,-40l0 -104 183 0c30,0 44,11 44,34l0 0 -163 0c-13,0 -20,5 -20,15l0 45c0,10 7,15 20,15l99 0c13,0 20,-5 20,-15l0 -5 -70 0 -35 0c0,-19 16,-35 35,-35l115 0 0 55 0 0zm-387 -25l45 -69c7,-10 17,-15 30,-15l40 0 0 104c0,26 15,40 45,40l-45 0c-30,0 -45,-13 -45,-40l0 -55 -54 85c-3,6 -9,9 -16,9 -7,0 -13,-4 -16,-10l-53 -84 0 94 -45 0 0 -144 40 0c13,0 23,5 30,15l45 69zm114 -55l0 -29 0 0c0,-25 20,-45 45,-45l0 45 -15 0c-16,0 -29,13 -29,29z"/>
 </g>
</svg>
