<?xml version="1.0" encoding="UTF-8"?>
<!DOCTYPE svg PUBLIC "-//W3C//DTD SVG 1.1//EN" "http://www.w3.org/Graphics/SVG/1.1/DTD/svg11.dtd">
<!-- Creator: CorelDRAW X6 -->
<svg xmlns="http://www.w3.org/2000/svg" xml:space="preserve" width="162.161mm" height="108.918mm" version="1.1" style="shape-rendering:geometricPrecision; text-rendering:geometricPrecision; image-rendering:optimizeQuality; fill-rule:evenodd; clip-rule:evenodd"
viewBox="0 0 159644 107228"
 xmlns:xlink="http://www.w3.org/1999/xlink">
 <defs>
  <style type="text/css">
   <![CDATA[
    .fil0 {fill:#ECECDF;fill-rule:nonzero}
   ]]>
  </style>
 </defs>
 <g id="Слой_x0020_1">
  <metadata id="CorelCorpID_0Corel-Layer"/>
  <path class="fil0" d="M66836 41931c68,-8 150,-28 216,-46 514,785 1020,1601 1546,2412 842,1342 1825,2836 2936,4499 -192,31 -365,68 -521,100 -167,46 -349,104 -514,159 -513,-873 -1293,-2163 -2331,-3850 -272,-433 -587,-927 -939,-1462 -145,1421 -225,2567 -283,3465 -25,302 -26,577 -37,824 -27,619 -28,1220 -25,1781 -51,13 -84,22 -118,32 -423,-356 -826,-718 -1210,-1074 -341,-297 -796,-697 -1391,-1223 -474,-406 -962,-810 -1434,-1218 -460,-381 -926,-781 -1433,-1193 337,1058 705,2100 1067,3184 350,1047 672,1885 954,2518 -139,28 -295,59 -418,73 -131,47 -280,96 -412,143 -950,-3450 -1682,-5965 -2260,-7595 84,-12 183,-37 282,-62 433,370 1008,866 1766,1498 1676,1421 3030,2513 4034,3265 173,-2131 367,-4205 525,-6230zm-66597 -11906c668,-129 1339,-244 2039,-369 183,-33 318,18 349,193 78,438 153,854 232,1292 27,153 -67,245 -266,279 -691,119 -1378,258 -2051,382 -199,37 -288,-23 -314,-178 -75,-442 -146,-861 -220,-1303 -28,-166 33,-269 232,-296zm431 2538c676,-123 1368,-247 2058,-376 200,-37 335,13 363,166 521,2822 1044,5733 1597,8729 32,176 -63,290 -269,333 -727,153 -1439,304 -2168,448 -206,41 -301,-35 -331,-212 -511,-3026 -1006,-5953 -1487,-8802 -26,-155 37,-248 236,-287zm7005 -957c62,-12 135,-56 259,-141 562,-387 1082,-640 1574,-726 507,-89 955,-76 1313,28 322,94 530,157 696,194 120,27 220,56 296,41 0,0 31,-6 46,-9 690,-581 1456,-949 2283,-1106 629,-120 1086,-103 1363,15 879,376 1410,815 1555,1366 590,2235 1202,4544 1831,6903 47,178 -35,277 -256,321 -666,131 -1346,274 -2011,413 -269,56 -427,-5 -469,-174 -543,-2161 -1060,-4263 -1573,-6310 -84,-336 -437,-441 -1071,-322 -634,118 -909,384 -816,765 495,2039 992,4132 1498,6269 40,169 -71,285 -324,339 -712,150 -1408,296 -2105,434 -238,47 -395,-13 -433,-184 -495,-2200 -959,-4338 -1424,-6409 -77,-342 -429,-449 -1032,-337 -649,121 -922,390 -841,777 434,2065 893,4193 1351,6366 36,172 -90,293 -328,343 -743,157 -1457,297 -2170,438 -206,41 -346,-13 -382,-199 -584,-2976 -1126,-5871 -1678,-8673 -30,-153 64,-253 248,-287 706,-132 1429,-261 2166,-397 31,-6 148,12 244,108 84,84 110,129 141,151 9,6 18,8 48,2zm11695 -611c-262,53 -401,-6 -443,-161 -94,-341 -205,-689 -298,-1030 -56,-206 102,-389 394,-557 172,-99 356,-189 561,-263 252,-92 468,-185 697,-236 259,-57 553,-98 829,-153 293,-47 567,-110 859,-159 356,-59 709,-49 1043,-12 1227,137 1978,605 2229,1390 690,2156 1385,4375 2100,6631 55,172 -26,278 -248,325 -696,146 -1395,276 -2076,416 -16,3 -56,-20 -116,-61 -142,-98 -222,-153 -255,-149 -64,7 -92,31 -106,45 -349,262 -594,419 -754,503 -163,85 -406,171 -723,237 -1219,253 -2216,-80 -2937,-1015 -219,-283 -398,-723 -555,-1282 -421,-1508 120,-2756 1590,-3716 628,-410 1162,-737 1621,-971 2,-55 -26,-122 -51,-195 -113,-332 -347,-469 -768,-406 -33,-4 -250,35 -606,101 -309,57 -488,105 -505,113 -610,272 -1081,461 -1452,599 -15,6 -31,7 -31,7zm2980 3796c173,615 522,893 1040,786 535,-110 746,-281 681,-505 -228,-786 -468,-1557 -703,-2341 -155,32 -330,170 -519,401 -486,594 -644,1146 -500,1659zm9104 822c-1108,220 -2036,-47 -2725,-849 -343,-399 -567,-800 -690,-1180 -411,-1263 -810,-2509 -1213,-3739 -119,-363 -164,-680 -106,-972 178,-896 744,-1446 1712,-1617 584,-103 1266,-38 2031,190 40,-29 74,-51 86,-91 30,-96 59,-181 61,-234 2,-43 9,-76 4,-96 676,-123 1337,-241 2028,-370 200,-37 319,12 373,157 935,2540 1902,5135 2880,7821 492,1349 64,2369 -1303,3015 -489,231 -1146,427 -2041,613 -766,159 -1412,277 -1906,315 -498,38 -776,-27 -832,-198 -168,-520 -338,-1042 -498,-1564 -15,-50 43,-85 201,-120 47,-11 109,-37 174,-38 602,-17 1002,-6 1180,-37 240,-41 492,-99 761,-159 286,-53 575,-101 858,-170 644,-158 922,-471 883,-888 -100,-169 -184,-342 -240,-531 -40,-24 -74,-26 -169,-6 -227,199 -457,371 -675,500 -183,108 -469,175 -833,247zm280 -2149c597,-118 834,-358 696,-744 -417,-1161 -820,-2316 -1218,-3451 -128,-364 -486,-482 -1058,-377 -603,111 -834,339 -708,706 390,1142 770,2307 1180,3475 136,388 511,508 1108,390zm9915 509c-855,175 -1545,241 -2039,169 -1627,-236 -2619,-906 -3030,-1992 -453,-1195 -916,-2386 -1350,-3563 -118,-321 -192,-667 -131,-1039 112,-685 446,-1167 975,-1444 459,-241 967,-431 1581,-540 522,-93 1000,-118 1483,-96 710,32 1356,287 1914,813 412,389 720,755 879,1117 144,327 278,663 404,976 131,333 304,654 410,995 60,193 -28,306 -153,331 -1297,253 -2594,504 -3907,760 -18,46 -53,94 -55,136 133,306 250,625 370,933 87,222 403,412 951,557 276,73 718,40 1285,-70 378,-73 579,-126 623,-145 470,-196 867,-363 1213,-478 10,-23 69,-49 148,-62 158,-27 252,19 294,122 195,485 394,969 596,1440 57,134 -86,285 -429,425 -148,61 -268,106 -418,165 -149,58 -268,105 -373,145 -406,155 -811,258 -1239,346zm-3749 -5161c621,-118 1243,-235 1879,-356 -80,-191 -189,-491 -396,-891 -209,-404 -564,-559 -1089,-463 -618,113 -856,392 -722,800 138,421 250,718 328,910zm-8828 14426c-205,-676 -43,-1178 497,-1525 201,-129 404,-206 582,-244 758,-160 1498,-325 2239,-481 162,-34 381,-54 644,-22 429,53 726,206 932,445 154,178 314,408 398,667 61,188 77,344 87,482 34,495 -202,867 -684,1108 -183,91 -351,163 -481,191 -749,162 -1480,330 -2228,494 -195,43 -400,57 -649,27 -465,-58 -776,-218 -982,-457 -167,-193 -278,-432 -355,-685zm1052 -228c87,261 252,356 511,300 811,-177 1620,-360 2430,-536 259,-56 344,-212 263,-470 -83,-260 -255,-353 -514,-298 -808,174 -1618,345 -2426,520 -259,56 -354,214 -264,484zm4985 2267c25,26 25,51 33,57 103,75 180,124 268,202 100,90 193,242 263,429 87,236 78,445 4,623 -81,194 -240,338 -478,473 -169,96 -336,172 -484,207 -903,216 -1826,420 -2747,631 -99,23 -286,36 -551,30 -613,-14 -985,-277 -1138,-804 -44,-152 -65,-279 -63,-365 3,-91 45,-172 57,-243 15,-88 16,-134 30,-148 -22,-16 -27,-36 -32,-57 -475,105 -914,211 -1356,310 -82,18 -170,-11 -205,-124 -80,-263 -143,-532 -228,-804 -26,-84 16,-137 114,-159 2086,-465 4156,-921 6209,-1378 82,-18 136,0 162,78 99,298 206,594 304,882 7,20 -12,22 -39,41 -92,64 -124,115 -123,116zm-3804 1204c75,243 247,336 477,284 804,-181 1589,-366 2376,-544 213,-48 287,-190 208,-438 -73,-231 -229,-316 -442,-269 -785,176 -1571,348 -2372,528 -213,48 -317,209 -246,439zm5707 1149c26,25 54,61 112,79 177,245 370,486 578,714 9,30 17,60 23,80 29,100 28,155 -5,163 -430,99 -812,184 -1208,285 48,224 113,392 125,496 12,105 -25,157 -108,178 -215,55 -432,100 -630,150 -66,17 -160,-9 -207,-109 -44,-95 -105,-243 -198,-447 -960,222 -1921,443 -2898,672 -133,31 -184,103 -168,228 19,140 44,293 71,460 -11,25 -43,32 -41,43 -281,73 -580,139 -845,206 -116,30 -211,-43 -271,-225 -30,-90 -42,-174 -73,-275 -100,-324 -158,-563 -133,-697 83,-448 317,-719 713,-811 1072,-247 2160,-500 3216,-744 33,-7 37,-31 33,-72 -6,-54 -7,-149 -39,-260 14,-15 57,-47 84,-76 265,-55 527,-121 792,-176 0,0 35,6 73,68 27,44 28,76 47,106 12,17 25,42 65,102 23,35 33,55 66,48 248,-53 527,-123 825,-186zm1450 2123c101,286 187,565 280,840 31,92 6,141 -111,168 -251,58 -517,123 -766,188 -100,26 -160,-12 -189,-101 -93,-278 -201,-562 -295,-840 -30,-89 14,-133 114,-158 248,-63 515,-121 763,-185 116,-30 177,-1 203,88zm-1512 356c99,287 184,566 276,844 29,89 7,152 -76,171 -1651,387 -3335,785 -5017,1191 -100,24 -159,-13 -187,-103 -88,-283 -172,-568 -263,-859 -26,-84 0,-133 116,-161 1660,-397 3335,-800 4981,-1181 83,-19 144,6 169,96zm759 2910c6,20 39,48 101,102 251,220 409,454 476,662 75,230 92,434 43,595 -44,145 -99,247 -124,324 -14,43 -10,90 -2,120 3,10 6,20 6,20 388,285 642,607 763,964 101,297 91,506 34,629 -202,434 -477,692 -834,780 -1375,340 -2783,702 -4208,1059 -119,30 -176,3 -207,-97 -93,-304 -183,-606 -277,-910 -34,-111 -10,-176 108,-205 1285,-316 2552,-640 3803,-950 203,-50 241,-205 153,-486 -84,-269 -236,-387 -471,-329 -1232,301 -2497,612 -3743,927 -101,26 -177,-5 -212,-118 -90,-292 -177,-586 -271,-889 -34,-111 6,-178 124,-206 1261,-305 2519,-621 3763,-923 201,-49 250,-196 157,-464 -96,-278 -251,-384 -470,-331 -1224,294 -2481,598 -3704,901 -117,29 -176,-9 -210,-120 -88,-283 -174,-575 -263,-859 -28,-90 -2,-144 115,-172 1686,-409 3358,-799 5028,-1202 84,-20 140,7 170,95 99,298 190,597 291,894 3,10 1,59 -60,102 -58,42 -75,52 -89,67 0,0 3,10 6,20zm3355 4367c105,296 199,603 298,900 33,98 5,143 -114,172 -274,68 -546,141 -784,207 -119,33 -177,4 -210,-94 -99,-298 -197,-607 -296,-903 -34,-102 -6,-153 113,-182 238,-58 511,-127 783,-194 119,-29 181,-5 210,94zm-1565 396c103,297 197,608 294,904 34,102 6,153 -79,175 -1707,431 -3431,871 -5170,1321 -120,31 -176,4 -208,-96 -94,-304 -186,-616 -280,-920 -31,-100 15,-149 117,-175 1735,-435 3451,-878 5150,-1312 85,-22 147,3 175,103zm67 1977c206,-51 333,-84 344,-85 142,-8 218,4 246,94 305,955 639,1915 944,2870 35,109 9,163 -95,189 -277,70 -518,137 -778,201 -17,4 -172,-15 -469,-83 -1087,-248 -2181,-538 -3344,-822 -69,19 -120,34 -171,47 165,545 335,1087 508,1620 36,110 -27,175 -148,206 -294,75 -570,149 -829,215 -121,31 -178,6 -213,-104 -318,-1020 -631,-2029 -936,-3061 -30,-101 10,-170 113,-196 308,-78 615,-160 941,-240 34,-8 135,9 365,64 1434,344 2536,622 3314,837 51,-14 122,-23 190,-42 -152,-479 -309,-956 -472,-1423 -24,-69 15,-140 114,-184 97,-43 203,-61 374,-103zm743 4357c-47,-108 -17,-195 105,-226 208,-52 434,-111 659,-169 122,-31 262,26 384,172 75,90 150,162 207,269 63,120 126,234 171,340 63,146 100,287 139,427 58,137 108,285 141,427 42,184 71,357 56,529 -55,643 -326,1040 -867,1190 -1431,395 -2863,785 -4311,1190 -122,34 -185,-12 -222,-133 -104,-344 -216,-676 -306,-1021 -3,-10 1,-42 21,-63 84,-87 100,-116 97,-127 -8,-30 -13,-51 -16,-61 -175,-168 -292,-280 -336,-353 -53,-87 -128,-217 -169,-359 -170,-588 12,-1082 581,-1451 189,-122 438,-230 802,-329 967,-262 1770,-37 2430,667 289,309 531,566 707,799 17,-6 72,-13 142,-30 209,-53 265,-187 221,-413 -3,-10 -38,-108 -102,-298 -50,-148 -65,-242 -71,-251 -211,-302 -355,-530 -455,-697 -5,-9 -5,-20 -9,-30zm-2371 1601c-381,105 -575,286 -487,546 85,251 192,369 331,331 504,-139 1009,-272 1531,-413 -22,-81 -112,-173 -279,-268 -407,-232 -767,-287 -1097,-196zm5736 1815c47,31 78,75 140,90 199,300 410,573 641,854 9,30 21,70 26,90 37,130 40,208 5,217 -457,127 -880,240 -1302,355 59,276 117,476 135,612 15,116 -7,177 -112,208 -228,68 -476,132 -687,195 -70,21 -160,-17 -203,-112 -60,-136 -127,-323 -233,-564 -1055,291 -2090,587 -3145,883 -140,39 -194,124 -172,273 26,176 60,367 74,559 -12,26 -26,43 -22,63 -318,85 -635,177 -934,258 -124,34 -229,-52 -294,-254 -36,-110 -55,-225 -91,-346 -118,-395 -173,-674 -150,-859 69,-538 319,-863 756,-983 1156,-319 2328,-645 3484,-964 18,-5 11,-40 12,-92 1,-81 5,-185 -52,-323 32,-19 59,-61 106,-96 281,-72 559,-154 840,-226 0,0 52,17 81,85 25,57 32,82 72,121 15,15 16,72 57,134 26,39 57,70 75,65 281,-74 595,-164 894,-242zm1648 2565c118,346 239,680 352,1027 36,108 -9,169 -115,198 -284,80 -584,166 -831,242 -123,38 -186,1 -222,-108 -111,-338 -218,-688 -331,-1033 -30,-93 -8,-161 115,-198 246,-75 545,-160 828,-238 105,-29 177,21 203,111zm-1623 458c98,350 219,696 330,1034 35,109 10,173 -97,203 -1788,510 -3593,1024 -5416,1547 -124,36 -185,1 -219,-110 -107,-354 -207,-700 -313,-1052 -31,-104 -6,-167 118,-202 1816,-515 3615,-1022 5396,-1525 106,-30 158,18 202,105zm-4624 5649c-269,-923 -113,-1608 496,-2117 204,-171 435,-304 631,-360 869,-247 1719,-498 2554,-735 195,-55 441,-76 736,-39 499,61 862,262 1103,581 187,247 365,555 487,911 89,258 113,474 128,659 54,681 -183,1204 -708,1558 -227,153 -399,237 -543,280 -859,258 -1685,499 -2545,751 -216,63 -459,83 -742,46 -538,-70 -915,-261 -1158,-589 -203,-274 -339,-603 -439,-946zm1195 -347c103,352 302,485 606,396 910,-267 1840,-534 2769,-804 286,-83 380,-303 261,-662 -118,-358 -310,-491 -612,-404 -909,262 -1833,538 -2741,802 -303,88 -390,307 -283,672zm5848 2971c11,40 72,67 133,124 287,272 462,564 549,842 112,359 138,637 46,864 -199,490 -486,797 -868,916 -1504,467 -3046,944 -4609,1416 -126,38 -199,-14 -231,-136 -98,-377 -220,-748 -332,-1123 -42,-141 1,-222 127,-261 1392,-425 2783,-852 4156,-1271 217,-66 252,-257 151,-588 -109,-359 -290,-486 -525,-414 -1351,409 -2741,822 -4093,1232 -126,38 -193,-16 -235,-157 -112,-375 -219,-751 -331,-1123 -31,-104 -2,-158 123,-195 1869,-556 3717,-1112 5531,-1651 108,-32 171,-1 204,102 124,386 235,767 362,1155 6,20 10,76 -58,140 -57,54 -99,75 -112,89 -7,8 6,20 11,40zm77779 -53626c-244,58 -474,104 -703,152 -82,17 -132,-6 -199,-82 -1386,-1574 -2740,-3128 -4077,-4661 -60,-68 -48,-110 16,-122 240,-47 462,-101 718,-152 96,-19 165,8 225,77 299,343 588,674 891,1014 32,-7 87,-58 171,-183 10,-16 -4,-33 11,-37 17,-4 27,-7 39,-17 58,-48 161,-81 290,-108 433,-92 913,74 1421,474 202,159 363,304 484,440 566,631 1124,1280 1694,1909 86,95 169,237 274,421 238,417 144,663 -330,764 -164,35 -332,48 -483,22 -158,-28 -255,-58 -331,-58 -16,4 -33,8 -33,8 -50,4 -88,56 -79,140zm-198 -905c212,-46 239,-159 82,-336 -522,-586 -1045,-1183 -1566,-1767 -146,-164 -313,-230 -539,-183 -209,44 -240,150 -90,319 515,581 1039,1177 1561,1772 156,178 340,241 552,194zm3512 279c-230,46 -433,44 -637,-25 -459,-157 -769,-373 -992,-623 -892,-1001 -1789,-1984 -2663,-2963 -61,-68 -52,-117 13,-130 241,-48 467,-89 707,-143 80,-18 151,11 212,78 812,898 1623,1789 2437,2709 24,27 87,50 204,88 110,36 211,51 292,32 227,-54 249,-159 96,-328 -800,-885 -1578,-1766 -2371,-2633 -68,-74 -51,-109 45,-128 225,-45 450,-92 691,-141 80,-16 150,2 211,70 1081,1184 2179,2387 3274,3595 73,80 56,116 -26,133 -261,56 -507,111 -752,164 -66,14 -147,-41 -262,-157 -11,11 -26,34 -33,51 -91,196 -250,314 -446,353zm-550 -3381c-476,-516 -517,-902 -147,-1132 76,-47 210,-85 434,-131 257,-53 444,-72 578,-72 282,-2 492,62 656,193 56,44 110,119 192,206 119,126 186,200 197,213 58,71 69,126 48,148 -27,14 -71,25 -151,43 -112,26 -209,24 -311,13 -171,-19 -306,-28 -387,-12 -242,50 -313,148 -174,291 101,103 278,217 572,303 109,32 199,51 321,85 125,35 230,76 334,107 70,21 211,69 460,161 526,195 989,485 1347,874 541,588 590,1030 117,1291 -93,51 -251,92 -463,137 -115,25 -213,45 -311,66 -201,42 -411,44 -612,3 -143,-29 -210,-69 -246,-109 -200,-224 -402,-445 -601,-660 -6,-8 16,-29 37,-51 201,11 380,23 533,25 152,2 292,-21 439,-53 293,-64 341,-192 147,-397 -106,-112 -319,-233 -650,-343 -248,-82 -484,-144 -747,-237 -196,-69 -421,-163 -691,-285 -333,-150 -644,-375 -922,-678zm961 -2578c223,-50 448,-90 687,-137 64,-13 140,13 201,79 171,187 340,368 501,541 68,74 55,114 -9,126 -241,48 -466,89 -690,139 -64,14 -136,-13 -198,-80 -166,-181 -337,-369 -499,-543 -68,-73 -57,-112 7,-126zm995 1063c225,-43 450,-92 691,-140 64,-13 130,6 199,79 1097,1156 2191,2350 3309,3536 74,79 58,114 -8,128 -245,52 -474,104 -687,149 -82,17 -150,0 -220,-74 -1117,-1195 -2213,-2388 -3311,-3555 -62,-66 -37,-107 27,-122zm2422 -326c32,-7 24,-28 43,-60 98,-168 233,-254 410,-291 225,-46 422,-22 624,48 428,149 749,333 981,575 908,946 1839,1906 2759,2876 68,71 58,111 -7,126 -228,55 -474,103 -703,152 -66,14 -141,-9 -205,-75 -841,-882 -1675,-1758 -2493,-2624 -137,-145 -315,-188 -508,-147 -209,44 -243,152 -94,310 812,862 1637,1732 2457,2596 70,74 58,114 -24,131 -245,52 -459,92 -688,140 -66,14 -125,-13 -188,-81 -1114,-1188 -2228,-2364 -3336,-3532 -63,-66 -54,-105 11,-118 225,-45 466,-97 707,-144 16,-3 65,10 124,54 50,38 86,55 108,58 0,0 22,4 22,4zm6999 2889c-311,64 -568,86 -795,50 -746,-120 -1339,-415 -1792,-888 -509,-532 -1024,-1059 -1539,-1588 -133,-137 -240,-298 -314,-462 -144,-320 -144,-526 9,-658 116,-101 293,-178 501,-221 193,-40 390,-51 596,-36 318,22 668,148 1055,389 275,171 490,352 655,511 150,145 299,291 434,439 158,152 305,297 447,453 69,76 64,133 16,144 -486,106 -958,199 -1428,301 1,24 18,45 12,55 146,147 272,281 411,422 91,92 283,191 536,253 143,35 295,24 523,-25 114,-24 194,-42 206,-50 138,-86 291,-151 382,-198 11,-10 27,-14 59,-22 48,-12 104,8 143,48 209,213 421,425 626,632 58,59 34,124 -69,181 -53,29 -90,55 -134,73 -54,22 -88,53 -129,71 -111,51 -266,94 -413,124zm-2930 -2307c226,-52 452,-97 679,-141 -78,-88 -205,-217 -397,-400 -189,-180 -378,-250 -572,-213 -226,43 -260,170 -90,349 176,185 302,317 380,405zm1557 -801c-496,-505 -555,-861 -210,-1092 61,-41 208,-84 400,-124 241,-50 445,-77 580,-74 254,6 464,76 623,198 52,40 132,101 218,194 111,121 182,193 191,207 51,75 91,117 54,141 -28,7 -70,25 -134,39 -113,26 -210,23 -297,12 -190,-24 -309,-25 -390,-9 -226,46 -274,134 -132,275 91,90 277,193 571,283 84,26 189,56 312,91 112,32 238,61 341,100 42,16 184,68 437,158 522,185 965,471 1345,850 566,564 632,983 216,1231 -92,55 -249,90 -462,135 -98,21 -196,44 -278,59 -218,41 -394,47 -583,8 -145,-30 -232,-69 -270,-108 -210,-215 -423,-425 -632,-630 27,-14 31,-32 52,-53 186,13 351,21 504,19 137,-2 279,-12 442,-47 260,-57 319,-184 117,-379 -111,-107 -331,-219 -670,-332 -220,-73 -460,-130 -729,-222 -203,-69 -413,-170 -677,-283 -340,-147 -658,-361 -940,-648zm2469 -511c-487,-501 -568,-856 -221,-1080 58,-38 207,-86 400,-123 241,-46 429,-71 548,-67 254,8 473,64 642,192 44,33 106,101 204,195 118,114 182,191 194,204 62,67 92,116 55,140 -10,11 -54,21 -134,39 -96,22 -210,24 -298,11 -175,-24 -294,-29 -358,-14 -241,55 -288,134 -146,275 96,95 292,201 576,287 95,29 202,54 314,89 108,34 222,66 325,95 57,15 200,77 441,163 523,188 974,462 1356,838 558,550 645,972 228,1218 -90,53 -249,89 -445,131 -98,21 -196,41 -278,59 -201,43 -397,43 -585,1 -130,-29 -216,-64 -254,-101 -213,-212 -428,-420 -640,-631 10,-10 33,-23 37,-41 187,12 368,17 522,15 137,-2 279,-15 410,-41 278,-55 304,-191 112,-383 -109,-109 -331,-214 -657,-324 -237,-81 -462,-142 -717,-229 -200,-68 -416,-157 -680,-272 -345,-150 -665,-356 -950,-648zm-101112 24201c-194,-517 -284,-966 -296,-1323 -36,-1108 576,-1783 1800,-2044 1402,-299 2801,-610 4236,-916 1192,-255 2153,80 2903,1007 269,332 491,737 695,1219 168,398 262,729 303,990 49,311 -22,502 -218,544 -491,105 -947,218 -1421,325 -163,37 -288,-54 -369,-266 -47,-123 -85,-190 -86,-210 -5,-105 -11,-269 -66,-465 -34,-121 -105,-235 -157,-361 -129,-313 -235,-498 -325,-560 -339,-233 -665,-327 -924,-271 -1152,250 -2301,512 -3453,760 -260,56 -451,248 -593,596 -36,88 5,307 130,647 93,254 141,375 181,412 33,31 50,104 116,205 66,101 101,178 122,224 28,60 46,107 68,164 71,185 28,314 -136,352 -506,115 -982,215 -1472,327 -212,49 -417,-82 -585,-378 -55,-97 -112,-167 -134,-213 -24,-49 -75,-120 -117,-216 -75,-174 -130,-362 -200,-548zm1816 5108c-443,-1267 -181,-2232 745,-2883 360,-253 684,-399 1012,-474 1344,-306 2671,-610 4032,-920 328,-75 713,-79 1175,-18 776,104 1371,380 1780,815 340,361 605,778 805,1272 142,350 223,645 250,889 107,947 -262,1671 -1093,2149 -333,191 -630,327 -864,383 -1351,324 -2686,648 -4040,966 -367,86 -757,96 -1210,27 -842,-129 -1432,-420 -1841,-892 -327,-377 -576,-816 -751,-1316zm1906 -430c185,486 499,695 995,577 1459,-347 2917,-692 4377,-1033 481,-112 614,-409 417,-895 -197,-486 -507,-670 -986,-560 -1452,334 -2904,670 -4356,1011 -478,112 -636,404 -447,900zm9510 4328c21,67 99,117 191,191 483,382 792,787 950,1185 208,524 236,933 107,1246 -289,698 -731,1131 -1328,1283 -2473,631 -4947,1257 -7436,1894 -188,48 -310,-21 -373,-199 -192,-548 -375,-1101 -566,-1650 -72,-207 -25,-330 161,-376 2220,-553 4439,-1111 6691,-1675 339,-85 429,-370 239,-837 -195,-477 -479,-677 -884,-577 -2192,542 -4369,1070 -6577,1621 -169,42 -292,-40 -360,-235 -186,-531 -379,-1057 -566,-1588 -55,-156 16,-244 184,-285 2981,-723 5929,-1438 8845,-2142 150,-36 251,19 310,170 209,534 438,1072 655,1614 15,38 7,106 -95,205 -65,63 -139,86 -144,112 -2,10 -10,24 -4,43zm-209 5033c1317,-340 2355,67 3163,1169 157,214 341,558 552,1081 245,607 378,1067 422,1371 84,579 12,981 -315,1151 -128,66 -310,92 -553,159 -312,85 -487,130 -542,136 -182,19 -339,2 -426,-90 -32,-97 -102,-216 -165,-387 -106,-289 -160,-530 -157,-710 7,-364 -23,-629 -103,-831 -236,-591 -520,-843 -881,-747 -276,74 -506,363 -676,862 -50,148 -86,349 -157,556 -74,217 -143,426 -202,601 -37,109 -142,385 -314,786 -392,908 -1111,1499 -2121,1771 -1531,413 -2726,-62 -3606,-1448 -174,-274 -344,-677 -525,-1200 -84,-244 -176,-488 -256,-736 -165,-514 -210,-954 -148,-1304 48,-272 133,-416 236,-443 547,-143 1095,-282 1642,-424 37,64 87,105 154,140 18,422 62,797 107,1138 40,301 103,647 236,1017 248,693 650,964 1168,829 276,-72 562,-377 780,-974 145,-398 269,-842 438,-1278 129,-332 340,-692 583,-1092 317,-522 880,-900 1666,-1103zm-4275 10955c-202,-580 -242,-1058 -83,-1436 329,-783 821,-1238 1449,-1409 2566,-699 5110,-1408 7623,-2093 157,-43 277,13 347,186 243,596 461,1181 683,1761 84,221 41,351 -117,396 -2300,645 -4670,1315 -7026,1964 -87,24 -148,123 -209,311 -67,207 -74,420 2,636 202,574 531,803 972,678 2313,-652 4625,-1307 6901,-1952 159,-45 293,42 379,269 232,612 490,1214 720,1816 76,199 15,339 -127,380 -3146,902 -6326,1828 -9545,2752 -195,56 -324,-19 -397,-236 -223,-657 -437,-1320 -660,-1977 -61,-179 61,-313 371,-426 -48,-30 -85,-94 -162,-157 -580,-476 -943,-952 -1120,-1461zm15024 2403c249,613 488,1230 731,1852 75,191 29,314 -151,367 -4005,1196 -8122,2410 -12253,3648 -198,59 -326,-8 -395,-213 -220,-650 -446,-1284 -664,-1924 -67,-195 1,-328 198,-385 4104,-1198 8175,-2378 12153,-3545 179,-52 299,13 382,200zm604 4406c83,70 184,134 280,178 429,567 839,1126 1301,1662 22,67 40,125 59,172 106,265 115,401 60,418 -800,248 -1601,495 -2383,738 184,561 301,972 365,1231 59,239 24,382 -141,433 -420,129 -842,254 -1224,379 -164,54 -323,-23 -441,-245 -135,-255 -303,-631 -521,-1120 -1929,592 -3822,1173 -5731,1771 -291,91 -379,276 -325,573 67,373 143,746 241,1136 -24,53 -31,99 -59,139 -549,169 -1095,346 -1662,523 -255,80 -450,-104 -616,-540 -86,-224 -164,-459 -242,-697 -266,-806 -392,-1391 -370,-1734 71,-1080 499,-1715 1276,-1951 2131,-646 4245,-1286 6375,-1933 36,-11 57,-83 43,-174 -23,-146 -59,-367 -147,-641 24,-51 85,-102 145,-163 505,-149 1009,-306 1514,-456 18,-5 85,61 159,183 57,94 115,167 131,215 16,48 89,143 167,269 49,79 102,126 138,115 523,-158 1048,-313 1609,-479zm3467 5084c266,660 534,1351 810,2029 89,218 38,353 -184,424 -517,164 -1033,326 -1512,486 -202,67 -302,-20 -387,-247 -258,-687 -543,-1364 -799,-2041 -75,-198 -46,-321 137,-378 496,-155 1008,-317 1521,-477 220,-69 346,4 414,204zm-2951 930c262,676 520,1364 775,2050 86,231 35,356 -131,409 -3281,1063 -6620,2133 -9976,3213 -203,65 -353,-4 -433,-241 -236,-707 -467,-1429 -701,-2126 -70,-208 1,-341 201,-404 3316,-1041 6648,-2097 9889,-3122 165,-52 290,22 376,220zm2285 7241c22,67 111,144 225,246 590,530 991,1081 1199,1637 277,741 324,1336 198,1764 -292,993 -756,1622 -1435,1854 -2816,964 -5647,1951 -8480,2927 -208,72 -352,-31 -436,-285 -254,-769 -520,-1542 -775,-2321 -96,-294 -30,-461 176,-531 2530,-857 5063,-1707 7612,-2571 394,-133 459,-547 219,-1202 -248,-680 -592,-948 -1058,-793 -2482,824 -4959,1665 -7461,2492 -204,68 -368,-39 -460,-316 -247,-747 -483,-1489 -728,-2225 -73,-218 -5,-364 181,-424 3389,-1103 6762,-2200 10060,-3270 167,-54 286,21 363,230 279,756 576,1505 858,2249 18,47 12,153 -110,295 -72,84 -129,127 -151,170 -5,9 -9,36 4,75zm-6686 13327c-448,-1388 -205,-2550 717,-3439 464,-447 954,-737 1428,-902 1611,-563 3222,-1125 4834,-1690 454,-159 878,-214 1275,-162 1277,166 2141,882 2608,2111 275,725 330,1614 166,2635 38,50 111,76 134,80 160,28 280,72 348,81 88,12 117,32 156,20 330,888 631,1771 960,2637 105,277 51,427 -123,492 -3443,1274 -6983,2583 -10484,3878 -1799,665 -3250,128 -4302,-1660 -358,-607 -691,-1505 -1045,-2616 -307,-963 -533,-1766 -645,-2389 -114,-633 -63,-969 145,-1043 644,-230 1290,-457 1954,-683 38,-13 102,62 159,260 23,79 68,134 76,195 101,757 155,1273 222,1505 92,321 202,632 310,936 105,367 222,734 350,1075 313,834 768,1208 1342,1143 212,-145 437,-250 687,-338 15,-18 15,-95 -12,-184 -307,-328 -581,-614 -786,-891 -174,-235 -320,-579 -473,-1052zm2924 320c260,770 617,1078 1116,896 1535,-560 3073,-1105 4609,-1664 480,-175 569,-642 287,-1400 -281,-758 -627,-1041 -1105,-871 -1528,542 -3057,1087 -4566,1623 -516,183 -605,634 -341,1417zm48519 -91316c381,-63 777,-128 1186,-205 106,-20 232,20 333,136 251,288 511,568 767,854 86,96 61,164 -62,185 -398,70 -795,142 -1178,209 -122,21 -230,-19 -320,-122 -248,-281 -507,-563 -759,-852 -96,-110 -89,-182 32,-205zm1490 1675c384,-66 782,-140 1181,-211 123,-22 234,26 325,128 1659,1854 3359,3734 5082,5667 103,115 75,188 -36,210 -410,82 -822,157 -1232,238 -111,22 -222,-16 -325,-133 -1708,-1946 -3397,-3848 -5040,-5707 -90,-102 -78,-168 45,-191zm4186 -485c31,-6 63,-45 98,-93 178,-248 434,-394 725,-443 384,-64 734,-37 1043,69 709,244 1231,546 1577,918 1403,1505 2829,3039 4263,4593 110,119 95,183 -32,206 -396,72 -790,151 -1185,229 -158,31 -268,-8 -378,-127 -1298,-1417 -2567,-2824 -3837,-4194 -204,-220 -490,-290 -846,-228 -371,65 -436,228 -204,485 1233,1365 2503,2748 3783,4156 105,115 76,181 -67,207 -411,76 -806,154 -1201,232 -126,25 -223,-16 -327,-131 -1731,-1923 -3425,-3809 -5097,-5660 -87,-96 -78,-160 44,-182 399,-70 813,-140 1226,-220 31,-6 94,16 207,83 87,51 144,98 155,102 19,7 36,1 51,-1zm9823 4641c-2302,-1781 -4580,-3515 -6777,-5254 -107,-84 -98,-161 -22,-175 445,-79 921,-159 1381,-241 92,-16 213,38 377,170 1276,1029 2553,2083 3853,3129 -9,-31 -3,-64 -2,-106 -758,-1065 -1517,-2129 -2264,-3177 -152,-213 -169,-331 -61,-350 399,-70 812,-147 1227,-220 92,-16 193,35 295,152 11,13 36,25 40,25 1163,1813 2335,3658 3567,5547 152,233 158,352 64,371 -442,88 -884,173 -1342,262 -109,-42 -219,-84 -333,-134zm6454 -917c-522,101 -966,119 -1334,59 -1210,-195 -2203,-664 -2923,-1408 -799,-826 -1597,-1659 -2396,-2480 -216,-222 -379,-462 -495,-721 -212,-470 -176,-794 76,-989 200,-155 480,-280 863,-349 322,-58 648,-61 979,-37 540,38 1090,230 1701,613 438,275 790,538 1052,791 235,227 463,463 689,688 231,232 473,454 689,688 113,122 98,204 19,219 -795,148 -1591,294 -2387,440 -4,41 6,71 16,101 212,214 425,436 637,649 166,167 452,300 879,405 230,56 501,46 863,-19 220,-40 337,-75 350,-82 266,-132 482,-237 670,-316 12,-2 37,-15 100,-29 78,-16 168,7 246,84 327,326 649,660 986,994 90,89 41,187 -148,288 -62,33 -144,60 -221,104 -60,34 -139,76 -189,97 -229,96 -468,161 -721,210zm-4692 -3626c388,-69 760,-136 1148,-206 -122,-135 -337,-342 -643,-629 -297,-279 -606,-391 -930,-335 -370,64 -424,241 -168,528 266,297 456,509 593,642zm2638 -1217c-771,-772 -850,-1323 -251,-1659 104,-58 328,-125 665,-182 399,-68 709,-101 931,-92 424,16 777,98 1040,299 72,55 166,169 313,306 193,179 296,292 310,306 104,104 139,184 88,225 -56,19 -134,29 -258,51 -170,29 -323,37 -473,15 -287,-41 -488,-36 -611,-14 -385,69 -480,209 -275,415 154,155 461,315 932,452 156,46 317,83 514,142 183,55 377,110 535,160 97,31 344,108 723,240 852,296 1578,734 2181,1324 890,872 990,1520 283,1897 -164,88 -403,152 -751,216 -158,29 -315,67 -458,90 -342,57 -678,54 -974,-8 -235,-49 -381,-99 -452,-169 -332,-326 -652,-662 -974,-993 16,-19 31,-47 63,-69 315,21 603,19 854,21 232,1 451,-13 703,-59 456,-85 521,-279 208,-583 -165,-160 -519,-348 -1065,-524 -369,-119 -786,-214 -1192,-350 -312,-105 -675,-261 -1089,-429 -552,-224 -1055,-564 -1517,-1027zm2154 -3027c15,-41 30,-83 41,-124 239,-160 461,-318 695,-477 30,-6 61,-11 91,-17 137,-25 233,-12 265,20 423,414 864,823 1296,1249 307,-36 538,-58 691,-71 133,-11 239,34 337,128 231,221 452,435 681,654 86,82 90,146 -13,188 -117,48 -303,98 -555,155 1048,1011 2116,2037 3190,3070 164,158 312,219 490,211 200,-9 427,-19 641,-48 17,19 48,29 97,42 313,302 632,600 947,904 131,126 87,227 -141,281 -125,29 -237,46 -348,67 -427,79 -746,98 -990,62 -721,-105 -1315,-386 -1756,-818 -1197,-1170 -2390,-2316 -3565,-3458 -25,-24 -68,-34 -140,-35 -76,-1 -206,-6 -371,10 -46,-30 -108,-57 -160,-93 -278,-265 -561,-546 -847,-824 -8,-8 2,-38 61,-66 49,-24 77,-31 102,-43 25,-13 76,-32 112,-53 47,-27 66,-43 46,-63 -295,-285 -589,-570 -899,-852zm5355 311c15,-3 42,-30 75,-83 138,-224 343,-360 604,-406 260,-46 531,-30 804,44 252,68 423,113 541,139 100,23 162,37 192,31 0,0 15,-3 31,-6 120,-342 394,-550 823,-628 322,-58 607,-42 854,40 730,243 1277,538 1658,887 1509,1383 3046,2788 4598,4217 113,104 114,164 4,184 -348,63 -696,131 -1043,200 -126,25 -238,-14 -350,-118 -1400,-1300 -2789,-2581 -4155,-3848 -208,-193 -484,-270 -809,-214 -324,56 -369,208 -110,448 1340,1244 2703,2514 4094,3799 113,104 97,169 -30,192 -348,63 -710,142 -1042,207 -126,25 -254,-19 -365,-124 -1398,-1314 -2767,-2605 -4135,-3874 -219,-203 -481,-277 -805,-217 -324,60 -356,199 -100,442 1325,1259 2683,2537 4062,3841 107,101 95,169 -32,194 -363,71 -711,140 -1059,203 -111,20 -217,-17 -331,-126 -1864,-1772 -3680,-3528 -5481,-5235 -94,-89 -95,-145 13,-164 368,-65 721,-130 1089,-193 31,-5 95,17 203,76 90,49 155,87 168,98 3,3 20,-4 35,-6zm13503 3909c-474,91 -876,118 -1238,58 -1136,-187 -2111,-639 -2863,-1326 -858,-784 -1706,-1556 -2546,-2321 -230,-209 -408,-431 -546,-669 -257,-445 -267,-754 -69,-925 170,-147 418,-260 755,-317 292,-49 590,-57 913,-33 489,36 1031,227 1639,584 450,264 814,501 1087,741 240,211 477,435 725,647 238,214 493,417 724,640 118,113 117,195 38,209 -717,133 -1435,263 -2153,394 -3,31 11,66 24,93 233,202 445,405 668,605 177,158 466,277 879,379 222,55 481,42 780,-12 204,-37 309,-64 334,-77 214,-113 408,-214 577,-286 11,-2 36,-15 83,-25 78,-16 154,8 242,85 341,301 677,610 1033,922 96,84 73,176 -97,263 -61,31 -127,55 -200,96 -60,33 -104,67 -168,97 -178,82 -401,137 -622,179zm-4809 -3389c341,-61 683,-121 1040,-185 -151,-120 -365,-326 -673,-586 -318,-268 -617,-369 -910,-316 -339,62 -371,226 -96,491 287,278 505,471 639,595zm2566 -2492c15,-3 33,-38 55,-84 107,-226 297,-340 543,-383 337,-60 640,-32 942,69 671,225 1186,498 1563,826 1544,1344 3119,2706 4708,4085 116,101 106,160 -5,180 -317,57 -664,125 -996,190 -110,22 -226,-13 -342,-114 -1433,-1261 -2848,-2493 -4246,-3725 -218,-192 -499,-260 -792,-206 -309,57 -327,190 -63,420 1377,1202 2762,2438 4185,3684 115,101 105,167 -22,192 -332,65 -663,130 -996,190 -95,17 -197,-25 -308,-123 -1917,-1703 -3817,-3382 -5660,-5020 -102,-90 -105,-144 -13,-160 353,-62 690,-124 1043,-185 15,-3 82,16 193,73 97,50 148,80 174,92 8,4 21,3 37,0zm1940 -1540c12,-38 9,-74 16,-112 198,-146 381,-289 589,-443 15,-3 45,-10 76,-14 138,-20 221,-12 255,18 450,386 903,778 1360,1169 279,-25 496,-45 620,-54 119,-9 233,28 337,116 242,207 480,406 715,609 95,82 105,141 19,178 -100,43 -268,89 -504,142 1103,949 2213,1906 3338,2872 166,143 336,208 485,201 203,-8 384,-14 586,-34 33,8 67,23 117,35 326,278 657,553 987,839 143,123 105,209 -89,255 -110,26 -222,42 -332,63 -379,75 -684,92 -922,55 -676,-103 -1243,-367 -1707,-766 -1269,-1091 -2506,-2166 -3754,-3238 -22,-19 -71,-25 -128,-26 -80,-2 -195,-13 -346,2 -65,-24 -114,-51 -170,-84 -290,-251 -584,-510 -884,-772 -9,-8 0,-34 41,-59 47,-28 75,-29 100,-41 25,-12 64,-29 109,-50 34,-16 47,-37 26,-56 -309,-268 -617,-538 -940,-804zm-42996 8520c3691,4303 7562,8849 11638,13641 -212,51 -425,93 -622,132 -4064,-4805 -7922,-9362 -11615,-13666 199,-38 383,-74 598,-107zm-61804 11070c2404,5317 4954,10979 7626,17020 -295,61 -573,119 -850,185 -2653,-6049 -5170,-11731 -7559,-17073 262,-41 522,-91 783,-133zm-2020 -12403c-576,-1187 -1158,-2354 -1721,-3514 135,0 280,-21 426,-32 126,-28 268,-49 392,-86 99,210 197,420 310,628 137,-498 507,-785 1124,-874 344,-50 669,-39 996,59 337,77 614,230 820,431 148,-524 537,-830 1197,-926 588,-85 1077,-12 1447,212 326,192 615,503 854,946 379,700 757,1390 1141,2099 -134,11 -269,23 -404,35 -127,29 -254,59 -384,79 -341,-650 -689,-1291 -1030,-1929 -209,-393 -421,-657 -623,-810 -303,-205 -672,-286 -1103,-223 -776,113 -952,551 -542,1334 342,653 669,1312 1022,1975 -147,23 -281,34 -417,46 -127,30 -256,50 -385,80 -377,-729 -739,-1444 -1101,-2153 -342,-669 -877,-947 -1582,-844 -790,115 -1017,510 -679,1191 357,719 721,1426 1073,2155 -134,11 -283,25 -418,36 -141,32 -284,64 -414,84zm10438 -4030c354,620 710,1233 1072,1848 91,99 189,141 349,116 87,-14 170,-36 263,-70 25,53 50,106 89,156 -203,98 -393,168 -553,190 -394,55 -711,-59 -919,-340 -19,22 -37,53 -58,75 -237,369 -649,596 -1203,683 -350,55 -709,16 -1060,-111 -353,-127 -614,-324 -753,-581 -196,-360 -150,-655 143,-862 173,-131 554,-284 1114,-444 384,-105 634,-199 718,-250 128,-95 140,-211 47,-376 -149,-262 -363,-456 -643,-566 -266,-112 -585,-142 -944,-89 -244,36 -455,114 -635,226 -190,123 -278,268 -254,426 -58,9 -86,13 -115,17 -73,-132 -146,-264 -220,-396 374,-330 818,-527 1349,-604 1047,-151 1765,162 2214,950zm109 1618c-204,-348 -392,-688 -596,-1035 -93,33 -203,61 -312,94 -555,171 -872,293 -967,354 -318,191 -400,423 -241,713 247,449 703,635 1329,538 276,-43 497,-172 645,-395 111,-169 152,-251 141,-268zm2784 389c-661,-1139 -1314,-2261 -1974,-3363 134,-10 266,-20 397,-39 113,-16 239,-44 363,-71 116,207 247,422 361,629 72,-496 451,-793 1126,-890 574,-83 1052,-13 1434,200 336,182 630,479 904,922 418,676 821,1341 1238,2028 -134,12 -253,30 -391,33 -141,31 -254,58 -381,88 -371,-632 -749,-1255 -1121,-1875 -216,-360 -424,-614 -650,-757 -309,-224 -656,-303 -1102,-238 -503,73 -747,267 -765,587 -26,238 99,565 348,986 320,542 645,1092 970,1642 -118,19 -253,30 -389,42 -126,29 -241,47 -369,77zm7050 -3467c382,597 768,1199 1146,1799 95,95 210,132 355,109 73,-11 169,-36 247,-66 27,51 54,101 96,150 -200,95 -374,159 -520,182 -379,59 -688,-58 -911,-335 -17,30 -33,60 -54,82 -209,354 -584,569 -1109,652 -364,57 -683,15 -1042,-105 -347,-131 -595,-316 -755,-568 -220,-346 -192,-627 77,-834 154,-124 505,-260 1030,-422 382,-103 616,-193 696,-251 98,-79 103,-190 4,-348 -164,-260 -385,-445 -658,-552 -258,-109 -566,-137 -925,-85 -230,34 -412,96 -588,205 -170,126 -252,266 -222,418 -43,6 -72,11 -115,17 -79,-126 -158,-253 -238,-379 348,-317 756,-514 1258,-586 1004,-145 1740,155 2226,915zm195 1571c-214,-330 -425,-668 -630,-1003 -92,32 -199,67 -294,99 -522,161 -822,280 -915,340 -299,174 -355,404 -184,682 270,438 721,617 1332,522 262,-41 447,-171 588,-385 78,-150 121,-224 102,-254zm4290 82c-948,142 -1235,494 -879,1039 178,273 445,476 823,589 325,102 672,124 1084,62 397,-60 678,-192 863,-376 175,-200 172,-450 -31,-746 -210,-307 -468,-504 -795,-580 -238,-62 -598,-57 -1065,13zm-212 -3480c64,89 111,172 171,252 -357,25 -699,57 -1028,77 564,178 981,437 1215,791 242,365 215,669 -71,919 -251,201 -644,342 -1165,421 -29,4 -87,13 -159,24 -333,51 -436,185 -298,408 93,150 282,229 522,237 100,12 309,-12 585,-54 189,-29 394,-52 583,-81 1061,-164 1783,69 2193,677 310,459 307,836 -21,1169 -276,280 -745,471 -1393,572 -456,71 -900,46 -1318,-78 -485,-132 -812,-375 -1026,-704 -308,-475 -175,-803 402,-993 -9,-17 -18,-33 -30,-50 -419,11 -723,-153 -933,-483 -170,-266 -89,-486 234,-671 -723,-127 -1226,-408 -1515,-852 -222,-342 -255,-624 -92,-838 186,-262 581,-418 1222,-493 437,-45 859,-97 1281,-149 47,2 104,-6 162,-14 32,4 61,0 104,-6 143,-21 269,-48 375,-81zm-2363 1471c173,263 386,459 649,600 311,170 626,232 959,181 319,-48 514,-177 572,-384 68,-190 8,-406 -154,-652 -400,-606 -940,-860 -1586,-766 -330,48 -520,169 -579,364 -59,193 -25,410 139,658zm8373 420c86,120 173,240 255,351 -295,339 -709,559 -1263,642 -671,100 -1304,16 -1894,-242 -579,-242 -1037,-613 -1382,-1115 -335,-488 -433,-910 -284,-1253 157,-353 556,-579 1216,-675 588,-85 1156,10 1692,285 487,247 885,602 1223,1073 -596,81 -1208,164 -1808,236 -434,65 -853,128 -1273,191 278,405 622,710 1028,925 487,247 993,329 1517,247 437,-68 766,-288 973,-666zm-3691 -757c780,-116 1590,-229 2385,-347 -540,-770 -1167,-1094 -1914,-985 -402,59 -633,225 -712,495 -47,247 34,529 241,838zm5319 1284c-761,-1066 -1514,-2125 -2274,-3166 135,-11 254,-19 370,-36 113,-16 224,-41 333,-65 129,192 272,372 399,564 29,-451 310,-710 855,-789 287,-41 607,-27 909,60 312,76 585,210 823,393 25,-464 322,-741 867,-819 516,-75 965,-10 1374,189 327,168 655,453 969,857 484,624 942,1257 1428,1901 -135,12 -256,23 -378,33 -96,24 -208,50 -323,68 -433,-584 -877,-1168 -1308,-1742 -268,-359 -503,-600 -730,-739 -308,-188 -651,-259 -1039,-203 -647,94 -727,486 -200,1202 433,586 872,1176 1307,1782 -120,10 -225,26 -349,28 -110,26 -223,53 -336,79 -482,-661 -955,-1306 -1426,-1943 -447,-605 -965,-861 -1583,-771 -690,101 -835,454 -387,1073 464,641 926,1285 1398,1944 -120,10 -241,20 -363,30 -111,26 -223,53 -338,70zm9898 -2254c64,118 158,240 247,346 -251,321 -628,530 -1154,608 -613,91 -1226,11 -1818,-234 -568,-240 -1038,-588 -1408,-1077 -355,-470 -498,-872 -381,-1206 124,-343 486,-558 1089,-645 560,-81 1107,10 1662,278 474,236 911,588 1260,1037 -568,77 -1150,156 -1722,224 -405,61 -795,120 -1186,178 302,393 650,684 1071,894 474,236 944,318 1439,241 422,-66 728,-275 901,-644zm-3598 -730c737,-110 1488,-222 2240,-326 -584,-739 -1219,-1055 -1923,-952 -373,54 -569,210 -604,472 -35,236 61,505 286,806zm5253 1240c-809,-1031 -1623,-2053 -2429,-3059 123,-1 226,-16 344,-24 97,-22 209,-38 301,-69 162,195 308,385 467,572 -36,-450 242,-708 830,-793 488,-70 940,-10 1329,184 336,160 655,441 985,842 505,613 1000,1224 1513,1843 -121,10 -227,19 -350,30 -95,23 -208,49 -307,65 -460,-569 -935,-1125 -1386,-1690 -262,-328 -514,-561 -735,-696 -313,-197 -665,-272 -1024,-220 -445,65 -639,245 -587,523 48,212 201,513 515,903 396,492 801,987 1190,1487 -106,8 -225,27 -336,27 -108,34 -208,49 -320,76zm1569 -4310c153,-96 321,-195 488,-293 224,274 447,541 668,807 273,-39 560,-81 847,-122 54,75 82,124 95,135 22,18 50,42 105,100 -287,42 -575,84 -848,123 480,577 983,1177 1468,1761 216,260 395,440 547,542 237,172 490,233 752,192 44,-7 114,-18 178,-44 0,0 51,-16 142,-47 52,50 90,103 124,147 -205,124 -394,195 -584,225 -379,59 -714,-6 -1015,-176 -241,-139 -496,-370 -760,-686 -508,-610 -1010,-1225 -1515,-1825 -172,25 -330,48 -489,71 -7,-32 -51,-67 -82,-113 -30,-45 -68,-73 -114,-117 158,-23 330,-48 502,-73 -173,-199 -335,-409 -510,-608zm-39489 13590c14,183 12,369 25,552 -30,5 -59,10 -74,13 -89,-63 -242,-125 -405,-215 -368,-163 -751,-212 -1180,-144 -577,91 -939,325 -1099,716 -131,347 -91,736 120,1172 234,484 596,864 1060,1147 552,297 1108,408 1708,307 270,-45 506,-140 706,-273 135,-103 292,-268 457,-483 35,4 53,10 84,5 52,128 89,258 140,377 -354,348 -795,569 -1410,675 -811,140 -1544,70 -2213,-206 -669,-277 -1153,-726 -1454,-1348 -291,-601 -252,-1124 100,-1548 307,-416 847,-679 1645,-806 635,-102 1227,-78 1789,62zm1598 1433c-294,-565 -269,-1054 54,-1488 312,-421 815,-684 1539,-800 709,-114 1393,-31 1991,243 602,282 1069,698 1373,1254 315,576 340,1085 53,1521 -275,435 -780,720 -1547,847 -722,120 -1421,31 -2083,-280 -624,-299 -1089,-736 -1381,-1298zm1713 -2047c-592,94 -925,349 -1002,759 -88,355 -8,768 246,1249 240,455 548,799 961,1057 447,290 958,398 1499,307 540,-92 837,-372 886,-845 47,-365 -38,-758 -259,-1169 -228,-425 -527,-756 -890,-1002 -457,-317 -937,-434 -1440,-355zm5362 2957c-695,-1248 -1394,-2467 -2077,-3689 138,-13 274,-27 425,-42 130,-31 261,-53 374,-81 132,216 249,434 380,650 93,-520 427,-829 1034,-924 340,-53 678,-47 1009,49 343,84 639,242 871,458 85,-552 454,-882 1104,-986 562,-89 1057,-17 1461,215 353,202 670,525 956,998 436,723 884,1459 1330,2198 -139,15 -262,28 -404,35 -130,32 -246,63 -378,96 -399,-682 -809,-1365 -1208,-2036 -239,-402 -477,-679 -699,-838 -330,-216 -690,-303 -1134,-231 -755,121 -875,587 -401,1398 401,685 808,1393 1202,2081 -123,13 -262,28 -402,44 -130,33 -246,63 -379,87 -438,-759 -871,-1510 -1307,-2258 -407,-699 -963,-988 -1673,-873 -770,124 -958,541 -552,1255 425,747 851,1504 1279,2261 -138,15 -277,30 -418,37 -145,36 -261,66 -393,99zm7906 -3228c256,412 561,722 934,946 429,269 910,346 1405,263 465,-78 714,-322 693,-735 -32,-309 -160,-675 -431,-1099 -623,-972 -1357,-1396 -2230,-1256 -488,79 -761,331 -756,748 -9,327 118,705 385,1134zm2310 3688c-155,19 -295,36 -419,50 -149,28 -267,59 -399,93 -1165,-1899 -2295,-3757 -3417,-5570 124,-11 260,-25 411,-41 114,-28 244,-59 371,-90 159,252 319,504 475,747 20,-338 122,-577 267,-704 213,-174 493,-280 863,-338 591,-93 1136,-5 1717,275 509,263 939,627 1240,1096 353,551 481,1032 385,1437 -112,473 -518,755 -1194,871 -661,114 -1295,-39 -1935,-466 539,866 1088,1758 1635,2641zm5029 -5612c419,626 855,1270 1292,1913 76,105 193,139 343,112 90,-16 178,-32 257,-64 45,47 76,105 106,154 -192,98 -381,171 -532,195 -376,61 -700,-49 -946,-343 -17,30 -33,61 -38,80 -185,381 -551,607 -1092,698 -346,58 -693,23 -1054,-97 -348,-132 -620,-330 -794,-605 -236,-371 -247,-674 5,-901 157,-128 515,-272 1053,-447 358,-116 584,-210 650,-267 114,-83 112,-212 0,-382 -179,-272 -402,-459 -691,-574 -289,-115 -596,-149 -951,-95 -237,36 -421,116 -568,232 -186,132 -262,291 -224,449 -44,7 -74,13 -104,18 -88,-132 -178,-272 -266,-404 324,-356 743,-557 1260,-639 975,-156 1752,160 2294,968zm299 1687c-245,-359 -478,-719 -725,-1077 -95,34 -189,69 -284,104 -488,175 -794,302 -888,364 -300,199 -345,445 -153,742 303,470 774,646 1404,541 240,-40 444,-180 547,-408 76,-160 109,-248 98,-264zm2788 379c-793,-1166 -1593,-2321 -2373,-3471 126,-3 261,-25 383,-37 116,-19 230,-47 342,-75 157,217 299,436 454,653 12,-515 336,-825 1001,-930 532,-84 992,-13 1397,205 365,180 693,505 1015,953 496,689 984,1386 1479,2087 -124,13 -263,29 -389,42 -99,27 -216,48 -332,77 -461,-646 -914,-1298 -1361,-1934 -250,-355 -507,-612 -729,-771 -329,-231 -699,-308 -1099,-245 -489,77 -727,283 -696,620 35,228 177,565 480,1008 387,566 778,1129 1165,1694 -124,13 -248,26 -389,42 -114,29 -230,59 -348,80zm6445 -1106c-1435,-1037 -2856,-2062 -4265,-3087 155,-8 307,-25 457,-49 130,-22 259,-52 401,-84 898,735 1971,1536 3231,2417 -77,-695 -279,-1632 -585,-2839 96,2 189,-5 295,-23 86,-14 171,-37 268,-62 42,274 147,915 296,1920 234,1482 464,2757 668,3810 -110,12 -220,23 -328,43 -103,19 -190,44 -278,61 -57,-706 -102,-1413 -160,-2106zm-16356 48545c-1233,-2756 -2441,-5448 -3622,-8065 179,-18 369,-60 560,-102 168,-46 317,-98 497,-167 1192,2617 2407,5290 3650,8037 -197,36 -358,75 -541,97 -184,75 -372,140 -543,200zm8553 380c-53,14 -88,25 -123,37 -1043,-593 -2135,-732 -3240,-424 -1105,307 -1787,902 -2065,1792 -269,879 -105,1898 438,3100 578,1279 1322,2228 2248,2775 984,588 2068,696 3272,338 701,-208 1273,-535 1688,-1006 -523,-1098 -1045,-2195 -1564,-3293 165,-31 347,-75 547,-116 155,-59 311,-117 502,-184 572,1212 1143,2415 1734,3624 -877,718 -1893,1253 -3026,1592 -1404,420 -2681,334 -3817,-237 -1190,-570 -2134,-1603 -2784,-3075 -646,-1462 -672,-2725 -153,-3765 503,-968 1422,-1655 2807,-2032 1297,-353 2412,-394 3359,-131 4,9 25,156 80,438 11,120 50,312 95,567zm35484 -36665c1537,2150 952,3538 -1811,4140 -4674,1019 -9465,2055 -14384,3129 -3204,699 -5726,-273 -7476,-2901 -2202,-3337 -4345,-6539 -6425,-9626 6283,-1148 12364,-2260 18278,-3330 2795,-506 4955,180 6501,2072 7,8 17,22 22,30 -5196,985 -10549,1995 -16026,3035 -1346,256 -1733,835 -1109,1718 965,1366 1914,2758 2885,4157 654,943 1692,1280 3094,986 3432,-719 6817,-1422 10154,-2113 1290,-267 1590,-866 882,-1767 -114,-145 -234,-293 -339,-446 -2302,471 -4653,945 -6987,1424 -1199,242 -2399,484 -3583,723 -1266,-1785 -705,-3491 1250,-3873 3786,-731 7508,-1456 11183,-2172 1275,1568 2574,3166 3911,4791 -11,11 -22,22 -22,22zm-42756 6089c418,-2662 846,-5245 1240,-7739 195,-1048 1003,-1694 2453,-1964 1435,-267 2856,-521 4275,-785 2016,3138 4094,6393 6246,9792 1680,2664 4210,3662 7495,2945 -1651,361 -3285,718 -4968,1086 -3366,738 -5934,-264 -7561,-2980 -1090,-1822 -2163,-3619 -3236,-5370 -378,3161 -729,6437 -1165,9854 -29,674 -497,1239 -1322,1420 -825,181 -1798,-90 -2507,-631 -3762,-2548 -7436,-5054 -11023,-7506 1631,3227 3290,6557 5019,10021 -1895,419 -3773,835 -5668,1254 -2479,-5333 -4860,-10375 -7115,-15133 1573,-295 3148,-584 4706,-872 1574,-290 2951,-30 4218,774 2928,1903 5899,3851 8912,5835zm9676 -7829c-580,-900 -1136,-1776 -1707,-2659 0,0 0,0 0,0 -1385,-2146 -408,-4223 2125,-4666 845,1265 1709,2527 2567,3807 -540,98 -1081,196 -1589,298 -1698,309 -2351,1752 -1396,3221zm3036 44961c-985,-2034 -1985,-4066 -2946,-6046 151,-15 313,-54 478,-84 137,-51 309,-111 459,-177 193,410 405,827 598,1237 -1,-51 -6,-110 -11,-170 79,-891 371,-1416 883,-1563 141,-41 274,-52 399,-39 115,362 231,725 358,1063 -18,6 -123,-4 -315,-36 -146,-17 -245,-17 -334,8 -337,94 -525,263 -595,518 -112,442 13,1006 353,1692 550,1109 1083,2205 1628,3317 -167,33 -333,75 -487,93 -153,69 -328,132 -468,186zm1894 -4099c-457,-901 -545,-1688 -258,-2405 261,-678 794,-1137 1625,-1370 812,-229 1590,-137 2337,282 765,403 1385,1037 1861,1931 482,906 620,1725 381,2456 -227,718 -777,1222 -1604,1468 -828,246 -1654,122 -2483,-343 -776,-439 -1404,-1123 -1859,-2020zm1535 -3393c-637,182 -984,612 -1004,1296 0,550 187,1194 588,1996 352,703 789,1260 1299,1643 578,438 1189,584 1800,403 593,-176 888,-656 870,-1419 -42,-595 -232,-1215 -569,-1856 -362,-688 -765,-1210 -1234,-1582 -592,-476 -1167,-646 -1750,-480zm8083 -2617c1066,1875 2154,3802 3246,5729 -166,41 -334,74 -471,88 -151,76 -307,134 -428,184 -189,-360 -397,-707 -586,-1057 45,866 -321,1438 -1132,1678 -1224,362 -2300,-255 -3149,-1823 -649,-1199 -1276,-2381 -1917,-3552 152,-15 315,-54 461,-81 137,-50 291,-105 423,-166 600,1072 1173,2150 1769,3240 748,1368 1567,1928 2483,1657 899,-266 998,-1065 267,-2365 -623,-1109 -1231,-2197 -1850,-3285 152,-15 315,-53 462,-80 137,-50 291,-105 422,-166zm4197 2255c379,648 792,1153 1267,1493 524,391 1080,515 1655,345 539,-159 757,-566 652,-1243 -78,-500 -302,-1080 -711,-1762 -928,-1549 -1854,-2167 -2846,-1893 -549,152 -786,573 -697,1239 41,531 275,1133 679,1822zm3411 5888c-150,39 -320,73 -470,112 -158,59 -298,116 -438,170 -1729,-3042 -3418,-5998 -5074,-8885 152,-15 299,-42 463,-80 136,-52 272,-103 422,-166 219,406 451,792 682,1178 -46,-542 22,-936 182,-1142 177,-290 481,-489 887,-604 671,-189 1339,-69 2059,353 665,387 1211,939 1659,1685 529,881 764,1653 731,2316 -45,763 -432,1267 -1205,1495 -739,218 -1534,-14 -2328,-660 807,1388 1608,2805 2431,4227zm-30000 -5822c-881,-1910 -1756,-3802 -2628,-5635 162,-23 320,-58 496,-86 133,-48 283,-101 447,-166 159,355 319,709 492,1052 44,-845 495,-1377 1336,-1595 704,-183 1287,-107 1767,228 421,278 799,783 1158,1507 558,1127 1102,2255 1670,3400 -179,40 -341,68 -489,91 -150,55 -286,106 -439,159 -509,-1060 -1013,-2101 -1513,-3143 -280,-583 -578,-990 -851,-1239 -371,-344 -835,-460 -1368,-319 -602,159 -933,520 -925,1062 1,390 169,936 503,1655 429,923 862,1840 1288,2776 -162,28 -341,69 -489,82 -167,68 -319,124 -455,175zm7930 -5619c-139,-900 -253,-1775 -355,-2662 130,-6 254,-30 361,-51 116,-42 216,-71 345,-127 28,365 56,950 120,1748 66,1080 102,1786 136,2131 60,811 154,1523 258,2172 -126,27 -253,53 -349,53 -114,53 -232,98 -349,142 -570,-605 -1322,-1372 -2304,-2319 -1076,-1093 -1971,-1946 -2682,-2591 179,-28 356,-58 531,-98 150,-52 319,-98 482,-165 991,1120 2282,2435 3897,3945 18,-46 26,-120 27,-211 41,-81 49,-155 23,-169 -46,-603 -111,-1202 -139,-1800zm7668 7c112,197 220,386 331,584 -363,615 -867,1023 -1550,1205 -823,219 -1610,129 -2344,-288 -730,-362 -1315,-977 -1765,-1815 -449,-837 -568,-1536 -396,-2147 177,-629 661,-1046 1452,-1246 739,-187 1433,-64 2137,375 603,377 1124,955 1552,1748 -750,186 -1500,372 -2255,547 -520,139 -1040,278 -1559,417 367,688 807,1193 1328,1526 602,377 1221,491 1851,323 576,-154 976,-564 1219,-1226zm-4606 -1043c969,-258 1957,-510 2926,-768 -692,-1287 -1507,-1795 -2418,-1559 -482,125 -764,435 -838,906 -59,427 35,891 331,1420zm5963 760c17,-5 35,-10 69,-21 651,458 1226,635 1715,505 280,-75 476,-247 568,-503 114,-261 75,-520 -95,-815 -193,-334 -563,-551 -1111,-629 -500,-65 -1004,-138 -1521,-199 -579,-152 -1016,-465 -1289,-963 -274,-498 -329,-938 -152,-1296 153,-369 482,-607 996,-744 240,-64 511,-102 766,-95 229,-5 416,21 594,70 41,284 95,553 188,823 -34,10 -69,20 -103,30 -182,-175 -402,-312 -641,-402 -245,-108 -471,-139 -660,-90 -310,80 -475,222 -570,427 -96,205 -48,445 116,730 184,321 530,542 1098,629 508,84 1011,157 1533,226 583,159 1000,453 1257,892 318,542 360,1024 126,1477 -201,406 -562,688 -1104,831 -526,139 -1035,153 -1556,6 -37,-207 -119,-502 -224,-890zm1256 -6343c219,-178 439,-356 641,-529 267,454 537,917 802,1372 361,-91 722,-182 1101,-278 65,129 101,197 116,231 8,17 58,73 127,170 -379,96 -739,197 -1101,289 598,999 1188,2027 1795,3053 263,445 494,754 677,926 298,276 626,381 958,292 70,-19 152,-55 230,-98 0,0 60,-38 203,-107 48,93 92,178 155,269 -282,228 -527,373 -789,446 -471,132 -911,41 -1294,-251 -305,-217 -603,-602 -931,-1170 -609,-1053 -1219,-2111 -1829,-3147 -224,53 -447,116 -672,169 -14,-65 -54,-128 -104,-207 -41,-64 -65,-138 -135,-198 223,-62 447,-115 669,-177 -209,-345 -405,-701 -618,-1054zm6567 5483c-1043,-1745 -2063,-3477 -3078,-5163 129,-17 289,-42 431,-72 115,-42 266,-84 394,-140 178,310 371,607 545,908 -13,-746 298,-1202 952,-1365 344,-86 717,-85 1111,38 371,109 711,303 1009,607 -26,-786 285,-1264 938,-1431 601,-154 1155,-73 1641,243 418,265 836,707 1253,1357 653,1018 1294,2046 1959,3079 -144,33 -289,66 -422,76 -130,57 -247,101 -381,148 -600,-965 -1199,-1900 -1799,-2851 -358,-568 -674,-954 -961,-1154 -379,-296 -804,-398 -1252,-283 -774,200 -807,851 -94,1999 602,968 1198,1926 1795,2908 -144,33 -290,57 -439,79 -130,57 -264,107 -383,143 -655,-1056 -1305,-2103 -1954,-3162 -597,-974 -1266,-1360 -1972,-1179 -844,216 -961,813 -354,1812 641,1056 1276,2106 1919,3171 -162,36 -307,60 -457,83 -130,58 -266,99 -401,147zm11572 -4417c109,188 230,363 353,547 -262,564 -682,929 -1277,1091 -734,199 -1472,103 -2225,-282 -712,-343 -1315,-912 -1817,-1696 -496,-775 -705,-1423 -583,-1983 72,-576 470,-954 1192,-1136 636,-160 1314,-45 2004,369 602,353 1146,884 1629,1620 -663,172 -1345,338 -2014,490 -450,121 -918,244 -1386,368 412,630 873,1101 1388,1414 600,354 1186,470 1744,317 506,-139 836,-510 991,-1120zm-4377 -999c866,-227 1731,-455 2614,-686 -797,-1184 -1570,-1670 -2395,-1458 -447,115 -664,395 -675,829 0,392 142,822 457,1316zm6451 1730c-1124,-1662 -2241,-3308 -3336,-4913 131,-9 256,-34 398,-64 116,-33 248,-79 375,-133 202,311 421,619 617,913 -97,-738 189,-1190 893,-1371 549,-141 1073,-57 1583,224 413,259 858,687 1299,1324 677,980 1367,1961 2070,2964 -146,24 -291,56 -425,67 -111,53 -246,101 -362,144 -633,-921 -1266,-1830 -1900,-2737 -355,-507 -665,-875 -955,-1094 -402,-301 -821,-404 -1252,-296 -500,125 -715,435 -612,917 76,329 316,810 743,1436 547,801 1078,1595 1631,2404 -145,32 -291,56 -423,76 -129,57 -246,100 -345,140zm1229 -7224c176,-169 353,-330 547,-495 303,428 607,856 904,1268 327,-82 654,-163 981,-245 74,118 118,191 133,214 10,16 65,74 140,157 -326,91 -653,173 -981,255 673,923 1337,1865 2020,2813 296,411 533,699 710,853 305,268 608,360 906,281 87,-23 170,-49 212,-81 0,0 59,-35 163,-104 75,92 124,170 174,248 -200,209 -425,337 -652,398 -438,117 -852,43 -1243,-228 -289,-208 -620,-566 -987,-1086 -691,-978 -1391,-1940 -2061,-2900 -207,48 -396,102 -586,146 -36,-55 -75,-120 -120,-191 -39,-63 -108,-111 -150,-183 188,-52 378,-97 584,-153 -233,-310 -456,-639 -695,-965zm-34659 2157c481,909 977,1806 1458,2715 117,138 235,188 404,149 102,-24 216,-67 288,-117 38,89 92,165 127,245 -214,148 -413,255 -599,303 -441,112 -813,-50 -1094,-474 -35,48 -53,93 -57,124 -223,561 -646,929 -1274,1088 -407,103 -803,57 -1231,-111 -414,-180 -722,-448 -917,-830 -270,-530 -266,-967 52,-1311 178,-188 592,-438 1201,-700 439,-186 709,-337 798,-430 112,-121 120,-322 -1,-549 -207,-386 -477,-654 -784,-803 -342,-151 -688,-178 -1106,-81 -267,62 -490,186 -675,355 -227,198 -295,427 -267,660 -33,9 -67,18 -117,30 -85,-197 -186,-391 -287,-576 368,-516 854,-835 1455,-977 1151,-271 2025,154 2626,1290zm352 2422c-278,-507 -544,-1015 -807,-1524 -122,62 -244,123 -354,172 -601,280 -964,475 -1050,579 -355,294 -423,654 -207,1069 344,662 878,904 1590,727 322,-81 552,-289 685,-625 102,-236 157,-372 143,-398zm3205 433c-906,-1657 -1803,-3296 -2669,-4903 120,-22 274,-52 429,-72 129,-43 275,-90 405,-125 190,327 381,664 555,1003 0,-39 -3,-88 -7,-136 51,-735 324,-1139 807,-1255 133,-32 258,-46 358,-24 100,289 202,587 332,861 0,0 -116,-10 -299,-41 -133,-5 -230,-17 -297,-2 -302,70 -494,217 -546,428 -97,352 3,799 318,1371 489,890 971,1783 1478,2681 -157,32 -314,55 -454,82 -148,50 -298,90 -412,132zm1869 -5975c891,1581 1816,3202 2748,4832 -158,23 -298,51 -439,70 -148,49 -279,95 -410,140 -910,-1638 -1829,-3255 -2734,-4847 137,-25 276,-42 430,-71 112,-39 259,-77 405,-123zm-836 -1694c69,127 93,254 37,381 -50,115 -165,189 -298,222 -149,38 -306,18 -434,-56 -165,-76 -285,-173 -368,-309 -83,-136 -92,-270 -40,-391 39,-108 131,-185 280,-217 150,-32 270,-6 433,57 175,68 304,156 389,312zm6676 324c941,1544 1899,3123 2865,4718 -157,32 -297,60 -438,78 -131,46 -261,91 -393,135 -167,-295 -331,-581 -515,-873 36,710 -289,1169 -1070,1361 -1155,283 -2122,-225 -2877,-1527 -568,-980 -1128,-1961 -1694,-2927 137,-25 276,-43 430,-72 112,-39 259,-77 405,-123 514,889 1034,1774 1565,2681 653,1113 1403,1571 2267,1357 814,-201 917,-838 274,-1905 -548,-909 -1089,-1819 -1620,-2716 121,-22 275,-51 413,-68 112,-39 257,-85 388,-119zm3811 1909c331,531 698,933 1115,1217 518,334 1013,436 1539,309 509,-123 713,-461 633,-1005 -66,-405 -272,-885 -630,-1453 -807,-1278 -1649,-1801 -2551,-1593 -519,120 -752,463 -706,1017 35,425 240,930 600,1508zm3011 4851c-158,33 -301,54 -464,79 -127,55 -261,93 -375,135 -1541,-2500 -3034,-4943 -4498,-7327 139,-16 276,-42 414,-69 147,-37 275,-80 404,-123 210,330 415,653 602,969 -10,-449 50,-762 201,-936 179,-228 483,-403 851,-487 618,-141 1240,-32 1861,312 611,329 1109,801 1508,1420 459,712 656,1346 611,1903 -29,623 -406,1028 -1102,1202 -696,174 -1433,-28 -2162,-575 703,1162 1423,2321 2151,3497zm1274 -6078c-448,-697 -550,-1313 -335,-1852 182,-522 634,-866 1335,-1028 684,-158 1356,-75 2035,249 678,323 1244,829 1709,1522 475,708 632,1334 483,1884 -150,553 -579,924 -1310,1102 -680,166 -1413,59 -2174,-308 -708,-345 -1295,-873 -1743,-1569zm1183 -2586c-568,131 -841,454 -820,970 9,426 217,941 608,1542 364,561 751,981 1222,1274 545,360 1087,465 1614,338 509,-123 716,-478 637,-1055 -52,-468 -251,-933 -587,-1442 -343,-520 -741,-930 -1141,-1230 -539,-379 -1047,-508 -1532,-397zm6388 3467c-1622,-2391 -3211,-4726 -4764,-6996 125,-13 261,-37 397,-62 112,-28 239,-69 345,-115 1579,2269 3174,4597 4803,6981 -142,20 -282,48 -405,72 -132,36 -262,80 -376,120z"/>
 </g>
</svg>
